<mxfile host="app.diagrams.net" agent="Mozilla/5.0 (Windows NT 10.0; Win64; x64) AppleWebKit/537.36 (KHTML, like Gecko) Chrome/131.0.0.0 Safari/537.36 Edg/131.0.0.0" version="25.0.3">
  <diagram name="Seite-1" id="zAsR073BEyB0m05-N4-k">
    <mxGraphModel dx="870" dy="498" grid="0" gridSize="10" guides="1" tooltips="1" connect="1" arrows="1" fold="1" page="1" pageScale="1" pageWidth="1169" pageHeight="827" math="0" shadow="0">
      <root>
        <mxCell id="0" />
        <mxCell id="1" parent="0" />
        <mxCell id="dWH_sTAXQQby6KeDxErJ-67" value="" style="rounded=0;whiteSpace=wrap;html=1;fillColor=none;strokeColor=#e9cf25;strokeWidth=3;" parent="1" vertex="1">
          <mxGeometry x="872" y="545" width="359" height="141" as="geometry" />
        </mxCell>
        <mxCell id="dWH_sTAXQQby6KeDxErJ-1" value="GV 101" style="shape=mxgraph.cisco.routers.router;sketch=0;html=1;pointerEvents=1;dashed=0;fillColor=#036897;strokeColor=#ffffff;strokeWidth=2;verticalLabelPosition=bottom;verticalAlign=top;align=center;outlineConnect=0;" parent="1" vertex="1">
          <mxGeometry x="326.5" y="454" width="78" height="53" as="geometry" />
        </mxCell>
        <mxCell id="dWH_sTAXQQby6KeDxErJ-2" value="EV OG 101" style="shape=mxgraph.cisco.switches.workgroup_switch;sketch=0;html=1;pointerEvents=1;dashed=0;fillColor=#036897;strokeColor=#ffffff;strokeWidth=2;verticalLabelPosition=bottom;verticalAlign=top;align=center;outlineConnect=0;" parent="1" vertex="1">
          <mxGeometry x="466.2" y="590" width="80.8" height="40" as="geometry" />
        </mxCell>
        <mxCell id="dWH_sTAXQQby6KeDxErJ-3" value="" style="shape=mxgraph.cisco.computers_and_peripherals.workstation;sketch=0;html=1;pointerEvents=1;dashed=0;fillColor=#036897;strokeColor=#ffffff;strokeWidth=2;verticalLabelPosition=bottom;verticalAlign=top;align=center;outlineConnect=0;" parent="1" vertex="1">
          <mxGeometry x="280" y="680" width="53.55" height="40" as="geometry" />
        </mxCell>
        <mxCell id="dWH_sTAXQQby6KeDxErJ-4" value="www.google.de" style="shape=mxgraph.cisco.computers_and_peripherals.ibm_mini_as400;sketch=0;html=1;pointerEvents=1;dashed=0;fillColor=#036897;strokeColor=#ffffff;strokeWidth=2;verticalLabelPosition=bottom;verticalAlign=top;align=center;outlineConnect=0;" parent="1" vertex="1">
          <mxGeometry x="377" y="60" width="43" height="62" as="geometry" />
        </mxCell>
        <mxCell id="dWH_sTAXQQby6KeDxErJ-5" value="DSL Modem0" style="shape=mxgraph.cisco.modems_and_phones.modem;sketch=0;html=1;pointerEvents=1;dashed=0;fillColor=#036897;strokeColor=#ffffff;strokeWidth=2;verticalLabelPosition=bottom;verticalAlign=top;align=center;outlineConnect=0;" parent="1" vertex="1">
          <mxGeometry x="520" y="166" width="77" height="27" as="geometry" />
        </mxCell>
        <mxCell id="dWH_sTAXQQby6KeDxErJ-6" value="Internet" style="image;aspect=fixed;perimeter=ellipsePerimeter;html=1;align=center;shadow=0;dashed=0;spacingTop=3;image=img/lib/active_directory/internet_cloud.svg;" parent="1" vertex="1">
          <mxGeometry x="499" y="30" width="130" height="81.9" as="geometry" />
        </mxCell>
        <mxCell id="dWH_sTAXQQby6KeDxErJ-7" value="www.bs-erlangen.de" style="shape=mxgraph.cisco.computers_and_peripherals.ibm_mini_as400;sketch=0;html=1;pointerEvents=1;dashed=0;fillColor=#036897;strokeColor=#ffffff;strokeWidth=2;verticalLabelPosition=bottom;verticalAlign=top;align=center;outlineConnect=0;" parent="1" vertex="1">
          <mxGeometry x="283.5" y="8" width="43" height="62" as="geometry" />
        </mxCell>
        <mxCell id="dWH_sTAXQQby6KeDxErJ-8" value="Root DNS-Server&lt;br&gt;173.0.0.2" style="shape=mxgraph.cisco.computers_and_peripherals.ibm_mini_as400;sketch=0;html=1;pointerEvents=1;dashed=0;fillColor=#036897;strokeColor=#ffffff;strokeWidth=2;verticalLabelPosition=bottom;verticalAlign=top;align=center;outlineConnect=0;" parent="1" vertex="1">
          <mxGeometry x="714" y="20" width="43" height="62" as="geometry" />
        </mxCell>
        <mxCell id="dWH_sTAXQQby6KeDxErJ-10" value="" style="endArrow=none;html=1;rounded=0;exitX=1;exitY=0.5;exitDx=0;exitDy=0;exitPerimeter=0;" parent="1" source="dWH_sTAXQQby6KeDxErJ-7" target="dWH_sTAXQQby6KeDxErJ-6" edge="1">
          <mxGeometry width="50" height="50" relative="1" as="geometry">
            <mxPoint x="424" y="80" as="sourcePoint" />
            <mxPoint x="474" y="30" as="targetPoint" />
          </mxGeometry>
        </mxCell>
        <mxCell id="dWH_sTAXQQby6KeDxErJ-11" value="" style="endArrow=none;html=1;rounded=0;exitX=1;exitY=0.25;exitDx=0;exitDy=0;entryX=0;entryY=0.5;entryDx=0;entryDy=0;entryPerimeter=0;" parent="1" source="dWH_sTAXQQby6KeDxErJ-6" target="dWH_sTAXQQby6KeDxErJ-8" edge="1">
          <mxGeometry width="50" height="50" relative="1" as="geometry">
            <mxPoint x="397" y="61" as="sourcePoint" />
            <mxPoint x="512" y="101" as="targetPoint" />
          </mxGeometry>
        </mxCell>
        <mxCell id="dWH_sTAXQQby6KeDxErJ-12" value="" style="endArrow=none;html=1;rounded=0;exitX=0;exitY=0.75;exitDx=0;exitDy=0;entryX=1;entryY=0.5;entryDx=0;entryDy=0;entryPerimeter=0;" parent="1" source="dWH_sTAXQQby6KeDxErJ-6" target="dWH_sTAXQQby6KeDxErJ-4" edge="1">
          <mxGeometry width="50" height="50" relative="1" as="geometry">
            <mxPoint x="407" y="71" as="sourcePoint" />
            <mxPoint x="522" y="111" as="targetPoint" />
          </mxGeometry>
        </mxCell>
        <mxCell id="dWH_sTAXQQby6KeDxErJ-13" value="" style="endArrow=none;html=1;rounded=0;exitX=0.5;exitY=1;exitDx=0;exitDy=0;entryX=0.5;entryY=0;entryDx=0;entryDy=0;entryPerimeter=0;strokeColor=default;dashed=1;edgeStyle=isometricEdgeStyle;elbow=vertical;" parent="1" source="dWH_sTAXQQby6KeDxErJ-6" target="dWH_sTAXQQby6KeDxErJ-5" edge="1">
          <mxGeometry width="50" height="50" relative="1" as="geometry">
            <mxPoint x="562" y="195.95" as="sourcePoint" />
            <mxPoint x="448" y="237.95" as="targetPoint" />
            <Array as="points">
              <mxPoint x="590" y="140" />
            </Array>
          </mxGeometry>
        </mxCell>
        <mxCell id="dWH_sTAXQQby6KeDxErJ-14" value="SV Erlangen" style="shape=mxgraph.cisco.routers.router;sketch=0;html=1;pointerEvents=1;dashed=0;fillColor=#036897;strokeColor=#ffffff;strokeWidth=2;verticalLabelPosition=bottom;verticalAlign=top;align=center;outlineConnect=0;" parent="1" vertex="1">
          <mxGeometry x="525" y="370" width="78" height="53" as="geometry" />
        </mxCell>
        <mxCell id="dWH_sTAXQQby6KeDxErJ-16" value="EV EG 101" style="shape=mxgraph.cisco.switches.workgroup_switch;sketch=0;html=1;pointerEvents=1;dashed=0;fillColor=#036897;strokeColor=#ffffff;strokeWidth=2;verticalLabelPosition=bottom;verticalAlign=top;align=center;outlineConnect=0;" parent="1" vertex="1">
          <mxGeometry x="252.75" y="589" width="80.8" height="40" as="geometry" />
        </mxCell>
        <mxCell id="dWH_sTAXQQby6KeDxErJ-18" value="DHCP/DNS" style="shape=mxgraph.cisco.computers_and_peripherals.ibm_mini_as400;sketch=0;html=1;pointerEvents=1;dashed=0;fillColor=#036897;strokeColor=#ffffff;strokeWidth=2;verticalLabelPosition=bottom;verticalAlign=top;align=center;outlineConnect=0;" parent="1" vertex="1">
          <mxGeometry x="170" y="568" width="43" height="62" as="geometry" />
        </mxCell>
        <mxCell id="dWH_sTAXQQby6KeDxErJ-20" value="" style="shape=mxgraph.cisco.computers_and_peripherals.workstation;sketch=0;html=1;pointerEvents=1;dashed=0;fillColor=#036897;strokeColor=#ffffff;strokeWidth=2;verticalLabelPosition=bottom;verticalAlign=top;align=center;outlineConnect=0;" parent="1" vertex="1">
          <mxGeometry x="220" y="680" width="53.55" height="40" as="geometry" />
        </mxCell>
        <mxCell id="dWH_sTAXQQby6KeDxErJ-21" value="" style="shape=mxgraph.cisco.computers_and_peripherals.workstation;sketch=0;html=1;pointerEvents=1;dashed=0;fillColor=#036897;strokeColor=#ffffff;strokeWidth=2;verticalLabelPosition=bottom;verticalAlign=top;align=center;outlineConnect=0;" parent="1" vertex="1">
          <mxGeometry x="520" y="690" width="53.55" height="40" as="geometry" />
        </mxCell>
        <mxCell id="dWH_sTAXQQby6KeDxErJ-22" value="DHCP/DNS" style="shape=mxgraph.cisco.computers_and_peripherals.ibm_mini_as400;sketch=0;html=1;pointerEvents=1;dashed=0;fillColor=#036897;strokeColor=#ffffff;strokeWidth=2;verticalLabelPosition=bottom;verticalAlign=top;align=center;outlineConnect=0;" parent="1" vertex="1">
          <mxGeometry x="410" y="578" width="43" height="62" as="geometry" />
        </mxCell>
        <mxCell id="dWH_sTAXQQby6KeDxErJ-23" value="" style="shape=mxgraph.cisco.computers_and_peripherals.workstation;sketch=0;html=1;pointerEvents=1;dashed=0;fillColor=#036897;strokeColor=#ffffff;strokeWidth=2;verticalLabelPosition=bottom;verticalAlign=top;align=center;outlineConnect=0;" parent="1" vertex="1">
          <mxGeometry x="460" y="690" width="53.55" height="40" as="geometry" />
        </mxCell>
        <mxCell id="dWH_sTAXQQby6KeDxErJ-24" value="" style="shape=mxgraph.cisco.computers_and_peripherals.workstation;sketch=0;html=1;pointerEvents=1;dashed=0;fillColor=#036897;strokeColor=#ffffff;strokeWidth=2;verticalLabelPosition=bottom;verticalAlign=top;align=center;outlineConnect=0;" parent="1" vertex="1">
          <mxGeometry x="1142" y="565" width="53.55" height="40" as="geometry" />
        </mxCell>
        <mxCell id="dWH_sTAXQQby6KeDxErJ-25" value="DHCP/DNS" style="shape=mxgraph.cisco.computers_and_peripherals.ibm_mini_as400;sketch=0;html=1;pointerEvents=1;dashed=0;fillColor=#036897;strokeColor=#ffffff;strokeWidth=2;verticalLabelPosition=bottom;verticalAlign=top;align=center;outlineConnect=0;" parent="1" vertex="1">
          <mxGeometry x="995.72" y="551" width="43" height="62" as="geometry" />
        </mxCell>
        <mxCell id="dWH_sTAXQQby6KeDxErJ-26" value="" style="shape=mxgraph.cisco.computers_and_peripherals.workstation;sketch=0;html=1;pointerEvents=1;dashed=0;fillColor=#036897;strokeColor=#ffffff;strokeWidth=2;verticalLabelPosition=bottom;verticalAlign=top;align=center;outlineConnect=0;" parent="1" vertex="1">
          <mxGeometry x="1082" y="565" width="53.55" height="40" as="geometry" />
        </mxCell>
        <mxCell id="dWH_sTAXQQby6KeDxErJ-27" value="170.0.0.1" style="text;html=1;strokeColor=none;fillColor=none;align=center;verticalAlign=middle;whiteSpace=wrap;rounded=0;" parent="1" vertex="1">
          <mxGeometry x="575" y="100" width="60" height="30" as="geometry" />
        </mxCell>
        <mxCell id="dWH_sTAXQQby6KeDxErJ-28" value=".253" style="text;html=1;strokeColor=none;fillColor=none;align=center;verticalAlign=middle;whiteSpace=wrap;rounded=0;" parent="1" vertex="1">
          <mxGeometry x="678" y="444" width="60" height="30" as="geometry" />
        </mxCell>
        <mxCell id="dWH_sTAXQQby6KeDxErJ-30" style="edgeStyle=orthogonalEdgeStyle;rounded=0;orthogonalLoop=1;jettySize=auto;html=1;exitX=0.5;exitY=0;exitDx=0;exitDy=0;exitPerimeter=0;entryX=0.5;entryY=1;entryDx=0;entryDy=0;entryPerimeter=0;endArrow=none;endFill=0;" parent="1" source="dWH_sTAXQQby6KeDxErJ-14" target="dWH_sTAXQQby6KeDxErJ-5" edge="1">
          <mxGeometry relative="1" as="geometry" />
        </mxCell>
        <mxCell id="dWH_sTAXQQby6KeDxErJ-32" value="" style="endArrow=none;html=1;rounded=0;exitX=0;exitY=0.5;exitDx=0;exitDy=0;entryX=0.88;entryY=0.1;entryDx=0;entryDy=0;entryPerimeter=0;exitPerimeter=0;" parent="1" source="dWH_sTAXQQby6KeDxErJ-14" target="dWH_sTAXQQby6KeDxErJ-1" edge="1">
          <mxGeometry width="50" height="50" relative="1" as="geometry">
            <mxPoint x="511" y="179" as="sourcePoint" />
            <mxPoint x="397" y="201" as="targetPoint" />
          </mxGeometry>
        </mxCell>
        <mxCell id="dWH_sTAXQQby6KeDxErJ-33" value="" style="endArrow=none;html=1;rounded=0;entryX=1;entryY=0.5;entryDx=0;entryDy=0;entryPerimeter=0;exitX=0.08;exitY=0.05;exitDx=0;exitDy=0;exitPerimeter=0;" parent="1" source="PNCa-ICzKWlC2xwCv6Wq-4" target="dWH_sTAXQQby6KeDxErJ-14" edge="1">
          <mxGeometry width="50" height="50" relative="1" as="geometry">
            <mxPoint x="704" y="448" as="sourcePoint" />
            <mxPoint x="407" y="211" as="targetPoint" />
          </mxGeometry>
        </mxCell>
        <mxCell id="dWH_sTAXQQby6KeDxErJ-34" value="" style="endArrow=none;html=1;rounded=0;exitX=0.12;exitY=0.9;exitDx=0;exitDy=0;entryX=0.5;entryY=0;entryDx=0;entryDy=0;entryPerimeter=0;exitPerimeter=0;" parent="1" source="dWH_sTAXQQby6KeDxErJ-1" target="dWH_sTAXQQby6KeDxErJ-16" edge="1">
          <mxGeometry width="50" height="50" relative="1" as="geometry">
            <mxPoint x="531" y="199" as="sourcePoint" />
            <mxPoint x="417" y="221" as="targetPoint" />
          </mxGeometry>
        </mxCell>
        <mxCell id="dWH_sTAXQQby6KeDxErJ-35" value="" style="endArrow=none;html=1;rounded=0;exitX=0.88;exitY=0.9;exitDx=0;exitDy=0;exitPerimeter=0;" parent="1" source="dWH_sTAXQQby6KeDxErJ-1" target="dWH_sTAXQQby6KeDxErJ-2" edge="1">
          <mxGeometry width="50" height="50" relative="1" as="geometry">
            <mxPoint x="541" y="209" as="sourcePoint" />
            <mxPoint x="427" y="231" as="targetPoint" />
          </mxGeometry>
        </mxCell>
        <mxCell id="dWH_sTAXQQby6KeDxErJ-37" value="" style="endArrow=none;html=1;rounded=0;exitX=0;exitY=0.5;exitDx=0;exitDy=0;entryX=1;entryY=0.5;entryDx=0;entryDy=0;entryPerimeter=0;exitPerimeter=0;" parent="1" source="dWH_sTAXQQby6KeDxErJ-16" target="dWH_sTAXQQby6KeDxErJ-18" edge="1">
          <mxGeometry width="50" height="50" relative="1" as="geometry">
            <mxPoint x="561" y="229" as="sourcePoint" />
            <mxPoint x="447" y="251" as="targetPoint" />
          </mxGeometry>
        </mxCell>
        <mxCell id="dWH_sTAXQQby6KeDxErJ-38" value="" style="endArrow=none;html=1;rounded=0;exitX=0;exitY=0.5;exitDx=0;exitDy=0;entryX=1;entryY=0.5;entryDx=0;entryDy=0;entryPerimeter=0;exitPerimeter=0;" parent="1" source="dWH_sTAXQQby6KeDxErJ-2" target="dWH_sTAXQQby6KeDxErJ-22" edge="1">
          <mxGeometry width="50" height="50" relative="1" as="geometry">
            <mxPoint x="571" y="239" as="sourcePoint" />
            <mxPoint x="457" y="261" as="targetPoint" />
          </mxGeometry>
        </mxCell>
        <mxCell id="dWH_sTAXQQby6KeDxErJ-39" value="" style="endArrow=none;html=1;rounded=0;" parent="1" source="PNCa-ICzKWlC2xwCv6Wq-4" target="dWH_sTAXQQby6KeDxErJ-25" edge="1">
          <mxGeometry width="50" height="50" relative="1" as="geometry">
            <mxPoint x="806" y="575" as="sourcePoint" />
            <mxPoint x="467" y="271" as="targetPoint" />
          </mxGeometry>
        </mxCell>
        <mxCell id="dWH_sTAXQQby6KeDxErJ-40" value="" style="endArrow=none;html=1;rounded=0;exitX=0;exitY=0.98;exitDx=0;exitDy=0;entryX=0.5;entryY=0;entryDx=0;entryDy=0;entryPerimeter=0;exitPerimeter=0;" parent="1" source="dWH_sTAXQQby6KeDxErJ-16" target="dWH_sTAXQQby6KeDxErJ-20" edge="1">
          <mxGeometry width="50" height="50" relative="1" as="geometry">
            <mxPoint x="591" y="259" as="sourcePoint" />
            <mxPoint x="477" y="281" as="targetPoint" />
          </mxGeometry>
        </mxCell>
        <mxCell id="dWH_sTAXQQby6KeDxErJ-41" value="" style="endArrow=none;html=1;rounded=0;exitX=0.87;exitY=0.74;exitDx=0;exitDy=0;entryX=0.755;entryY=0;entryDx=0;entryDy=0;entryPerimeter=0;exitPerimeter=0;" parent="1" source="dWH_sTAXQQby6KeDxErJ-16" target="dWH_sTAXQQby6KeDxErJ-3" edge="1">
          <mxGeometry width="50" height="50" relative="1" as="geometry">
            <mxPoint x="601" y="269" as="sourcePoint" />
            <mxPoint x="487" y="291" as="targetPoint" />
          </mxGeometry>
        </mxCell>
        <mxCell id="dWH_sTAXQQby6KeDxErJ-42" value="" style="endArrow=none;html=1;rounded=0;exitX=0;exitY=0.98;exitDx=0;exitDy=0;entryX=0.19;entryY=0.02;entryDx=0;entryDy=0;entryPerimeter=0;exitPerimeter=0;" parent="1" source="dWH_sTAXQQby6KeDxErJ-2" target="dWH_sTAXQQby6KeDxErJ-23" edge="1">
          <mxGeometry width="50" height="50" relative="1" as="geometry">
            <mxPoint x="611" y="279" as="sourcePoint" />
            <mxPoint x="497" y="301" as="targetPoint" />
          </mxGeometry>
        </mxCell>
        <mxCell id="dWH_sTAXQQby6KeDxErJ-43" value="" style="endArrow=none;html=1;rounded=0;exitX=0.87;exitY=0.74;exitDx=0;exitDy=0;entryX=0.755;entryY=0;entryDx=0;entryDy=0;entryPerimeter=0;exitPerimeter=0;" parent="1" source="dWH_sTAXQQby6KeDxErJ-2" target="dWH_sTAXQQby6KeDxErJ-21" edge="1">
          <mxGeometry width="50" height="50" relative="1" as="geometry">
            <mxPoint x="621" y="289" as="sourcePoint" />
            <mxPoint x="507" y="311" as="targetPoint" />
          </mxGeometry>
        </mxCell>
        <mxCell id="dWH_sTAXQQby6KeDxErJ-44" value="" style="endArrow=none;html=1;rounded=0;exitX=1;exitY=0.5;exitDx=0;exitDy=0;exitPerimeter=0;" parent="1" source="PNCa-ICzKWlC2xwCv6Wq-4" target="dWH_sTAXQQby6KeDxErJ-26" edge="1">
          <mxGeometry width="50" height="50" relative="1" as="geometry">
            <mxPoint x="761.1840000000002" y="612" as="sourcePoint" />
            <mxPoint x="730" y="680" as="targetPoint" />
          </mxGeometry>
        </mxCell>
        <mxCell id="dWH_sTAXQQby6KeDxErJ-45" value="" style="endArrow=none;html=1;rounded=0;entryX=1;entryY=0.5;entryDx=0;entryDy=0;entryPerimeter=0;" parent="1" source="dWH_sTAXQQby6KeDxErJ-24" target="PNCa-ICzKWlC2xwCv6Wq-4" edge="1">
          <mxGeometry width="50" height="50" relative="1" as="geometry">
            <mxPoint x="641" y="309" as="sourcePoint" />
            <mxPoint x="761.1840000000002" y="612" as="targetPoint" />
          </mxGeometry>
        </mxCell>
        <mxCell id="dWH_sTAXQQby6KeDxErJ-46" value="192.168.1.248 /30" style="text;html=1;strokeColor=none;fillColor=none;align=center;verticalAlign=middle;whiteSpace=wrap;rounded=0;" parent="1" vertex="1">
          <mxGeometry x="376.5" y="381.5" width="110" height="30" as="geometry" />
        </mxCell>
        <mxCell id="dWH_sTAXQQby6KeDxErJ-47" value="192.168.1.252 /30" style="text;html=1;strokeColor=none;fillColor=none;align=center;verticalAlign=middle;whiteSpace=wrap;rounded=0;" parent="1" vertex="1">
          <mxGeometry x="629" y="399" width="110" height="30" as="geometry" />
        </mxCell>
        <mxCell id="dWH_sTAXQQby6KeDxErJ-48" value="192.168.1.128 /28" style="text;html=1;strokeColor=none;fillColor=none;align=center;verticalAlign=middle;whiteSpace=wrap;rounded=0;" parent="1" vertex="1">
          <mxGeometry x="213" y="750" width="110" height="30" as="geometry" />
        </mxCell>
        <mxCell id="dWH_sTAXQQby6KeDxErJ-49" value="192.168.1.144 /28" style="text;html=1;strokeColor=none;fillColor=none;align=center;verticalAlign=middle;whiteSpace=wrap;rounded=0;" parent="1" vertex="1">
          <mxGeometry x="460" y="750" width="110" height="30" as="geometry" />
        </mxCell>
        <mxCell id="dWH_sTAXQQby6KeDxErJ-51" value="192.168.1.160 /29" style="text;html=1;strokeColor=none;fillColor=none;align=center;verticalAlign=middle;whiteSpace=wrap;rounded=0;" parent="1" vertex="1">
          <mxGeometry x="1123" y="657" width="110" height="30" as="geometry" />
        </mxCell>
        <mxCell id="dWH_sTAXQQby6KeDxErJ-52" value=".254" style="text;html=1;strokeColor=none;fillColor=none;align=center;verticalAlign=middle;whiteSpace=wrap;rounded=0;" parent="1" vertex="1">
          <mxGeometry x="597" y="375" width="60" height="30" as="geometry" />
        </mxCell>
        <mxCell id="dWH_sTAXQQby6KeDxErJ-53" value=".166" style="text;html=1;strokeColor=none;fillColor=none;align=center;verticalAlign=middle;whiteSpace=wrap;rounded=0;" parent="1" vertex="1">
          <mxGeometry x="854" y="554" width="60" height="30" as="geometry" />
        </mxCell>
        <mxCell id="dWH_sTAXQQby6KeDxErJ-54" value=".161" style="text;html=1;strokeColor=none;fillColor=none;align=center;verticalAlign=middle;whiteSpace=wrap;rounded=0;" parent="1" vertex="1">
          <mxGeometry x="981" y="627" width="60" height="30" as="geometry" />
        </mxCell>
        <mxCell id="dWH_sTAXQQby6KeDxErJ-55" value="DHCP: .162-.165" style="text;html=1;strokeColor=none;fillColor=none;align=center;verticalAlign=middle;whiteSpace=wrap;rounded=0;" parent="1" vertex="1">
          <mxGeometry x="981" y="653" width="60" height="30" as="geometry" />
        </mxCell>
        <mxCell id="dWH_sTAXQQby6KeDxErJ-59" value=".145" style="text;html=1;strokeColor=none;fillColor=none;align=center;verticalAlign=middle;whiteSpace=wrap;rounded=0;" parent="1" vertex="1">
          <mxGeometry x="398" y="656" width="60" height="30" as="geometry" />
        </mxCell>
        <mxCell id="dWH_sTAXQQby6KeDxErJ-60" value="DHCP: .146-.157" style="text;html=1;strokeColor=none;fillColor=none;align=center;verticalAlign=middle;whiteSpace=wrap;rounded=0;" parent="1" vertex="1">
          <mxGeometry x="398" y="682" width="60" height="30" as="geometry" />
        </mxCell>
        <mxCell id="dWH_sTAXQQby6KeDxErJ-61" value=".129" style="text;html=1;strokeColor=none;fillColor=none;align=center;verticalAlign=middle;whiteSpace=wrap;rounded=0;" parent="1" vertex="1">
          <mxGeometry x="153" y="644" width="60" height="30" as="geometry" />
        </mxCell>
        <mxCell id="dWH_sTAXQQby6KeDxErJ-62" value="DHCP: .130-.141" style="text;html=1;strokeColor=none;fillColor=none;align=center;verticalAlign=middle;whiteSpace=wrap;rounded=0;" parent="1" vertex="1">
          <mxGeometry x="153" y="670" width="60" height="30" as="geometry" />
        </mxCell>
        <mxCell id="dWH_sTAXQQby6KeDxErJ-63" value=".250" style="text;html=1;strokeColor=none;fillColor=none;align=center;verticalAlign=middle;whiteSpace=wrap;rounded=0;" parent="1" vertex="1">
          <mxGeometry x="480" y="379" width="60" height="30" as="geometry" />
        </mxCell>
        <mxCell id="dWH_sTAXQQby6KeDxErJ-64" value=".249" style="text;html=1;strokeColor=none;fillColor=none;align=center;verticalAlign=middle;whiteSpace=wrap;rounded=0;" parent="1" vertex="1">
          <mxGeometry x="363" y="431" width="60" height="30" as="geometry" />
        </mxCell>
        <mxCell id="dWH_sTAXQQby6KeDxErJ-65" value=".142" style="text;html=1;strokeColor=none;fillColor=none;align=center;verticalAlign=middle;whiteSpace=wrap;rounded=0;" parent="1" vertex="1">
          <mxGeometry x="273" y="524" width="60" height="30" as="geometry" />
        </mxCell>
        <mxCell id="dWH_sTAXQQby6KeDxErJ-66" value=".158" style="text;html=1;strokeColor=none;fillColor=none;align=center;verticalAlign=middle;whiteSpace=wrap;rounded=0;" parent="1" vertex="1">
          <mxGeometry x="422" y="524" width="60" height="30" as="geometry" />
        </mxCell>
        <mxCell id="dWH_sTAXQQby6KeDxErJ-68" value="" style="rounded=0;whiteSpace=wrap;html=1;fillColor=none;strokeColor=#59e91c;strokeWidth=3;" parent="1" vertex="1">
          <mxGeometry x="395" y="530" width="190" height="250" as="geometry" />
        </mxCell>
        <mxCell id="dWH_sTAXQQby6KeDxErJ-69" value="" style="rounded=0;whiteSpace=wrap;html=1;fillColor=none;strokeColor=#254ce9;strokeWidth=3;" parent="1" vertex="1">
          <mxGeometry x="154" y="530" width="190" height="250" as="geometry" />
        </mxCell>
        <mxCell id="XRyfRLnAcs_E6gIAgkFT-1" value="" style="shape=table;startSize=0;container=1;collapsible=0;childLayout=tableLayout;" parent="1" vertex="1">
          <mxGeometry x="90" y="433" width="223" height="66.25" as="geometry" />
        </mxCell>
        <mxCell id="XRyfRLnAcs_E6gIAgkFT-2" value="" style="shape=tableRow;horizontal=0;startSize=0;swimlaneHead=0;swimlaneBody=0;strokeColor=inherit;top=0;left=0;bottom=0;right=0;collapsible=0;dropTarget=0;fillColor=none;points=[[0,0.5],[1,0.5]];portConstraint=eastwest;" parent="XRyfRLnAcs_E6gIAgkFT-1" vertex="1">
          <mxGeometry width="223" height="27" as="geometry" />
        </mxCell>
        <mxCell id="XRyfRLnAcs_E6gIAgkFT-3" value="Zielnetz inkl. SNM&lt;span style=&quot;white-space: pre;&quot;&gt;&#x9;&lt;/span&gt;" style="shape=partialRectangle;html=1;whiteSpace=wrap;connectable=0;strokeColor=inherit;overflow=hidden;fillColor=none;top=0;left=0;bottom=0;right=0;pointerEvents=1;" parent="XRyfRLnAcs_E6gIAgkFT-2" vertex="1">
          <mxGeometry width="112" height="27" as="geometry">
            <mxRectangle width="112" height="27" as="alternateBounds" />
          </mxGeometry>
        </mxCell>
        <mxCell id="XRyfRLnAcs_E6gIAgkFT-4" value="Next Hop" style="shape=partialRectangle;html=1;whiteSpace=wrap;connectable=0;strokeColor=inherit;overflow=hidden;fillColor=none;top=0;left=0;bottom=0;right=0;pointerEvents=1;" parent="XRyfRLnAcs_E6gIAgkFT-2" vertex="1">
          <mxGeometry x="112" width="111" height="27" as="geometry">
            <mxRectangle width="111" height="27" as="alternateBounds" />
          </mxGeometry>
        </mxCell>
        <mxCell id="XRyfRLnAcs_E6gIAgkFT-5" value="" style="shape=tableRow;horizontal=0;startSize=0;swimlaneHead=0;swimlaneBody=0;strokeColor=inherit;top=0;left=0;bottom=0;right=0;collapsible=0;dropTarget=0;fillColor=none;points=[[0,0.5],[1,0.5]];portConstraint=eastwest;" parent="XRyfRLnAcs_E6gIAgkFT-1" vertex="1">
          <mxGeometry y="27" width="223" height="39" as="geometry" />
        </mxCell>
        <mxCell id="XRyfRLnAcs_E6gIAgkFT-6" value="0.0.0.0 /0&lt;span style=&quot;white-space: pre;&quot;&gt;&#x9;&lt;/span&gt;" style="shape=partialRectangle;html=1;whiteSpace=wrap;connectable=0;strokeColor=inherit;overflow=hidden;fillColor=none;top=0;left=0;bottom=0;right=0;pointerEvents=1;" parent="XRyfRLnAcs_E6gIAgkFT-5" vertex="1">
          <mxGeometry width="112" height="39" as="geometry">
            <mxRectangle width="112" height="39" as="alternateBounds" />
          </mxGeometry>
        </mxCell>
        <mxCell id="XRyfRLnAcs_E6gIAgkFT-7" value="192.168.1.250" style="shape=partialRectangle;html=1;whiteSpace=wrap;connectable=0;strokeColor=inherit;overflow=hidden;fillColor=none;top=0;left=0;bottom=0;right=0;pointerEvents=1;" parent="XRyfRLnAcs_E6gIAgkFT-5" vertex="1">
          <mxGeometry x="112" width="111" height="39" as="geometry">
            <mxRectangle width="111" height="39" as="alternateBounds" />
          </mxGeometry>
        </mxCell>
        <mxCell id="XRyfRLnAcs_E6gIAgkFT-8" value="" style="shape=table;startSize=0;container=1;collapsible=0;childLayout=tableLayout;" parent="1" vertex="1">
          <mxGeometry x="276" y="201" width="223" height="152" as="geometry" />
        </mxCell>
        <mxCell id="XRyfRLnAcs_E6gIAgkFT-9" value="" style="shape=tableRow;horizontal=0;startSize=0;swimlaneHead=0;swimlaneBody=0;strokeColor=inherit;top=0;left=0;bottom=0;right=0;collapsible=0;dropTarget=0;fillColor=none;points=[[0,0.5],[1,0.5]];portConstraint=eastwest;" parent="XRyfRLnAcs_E6gIAgkFT-8" vertex="1">
          <mxGeometry width="223" height="27" as="geometry" />
        </mxCell>
        <mxCell id="XRyfRLnAcs_E6gIAgkFT-10" value="Zielnetz inkl. SNM&lt;span style=&quot;white-space: pre;&quot;&gt;&#x9;&lt;/span&gt;" style="shape=partialRectangle;html=1;whiteSpace=wrap;connectable=0;strokeColor=inherit;overflow=hidden;fillColor=none;top=0;left=0;bottom=0;right=0;pointerEvents=1;" parent="XRyfRLnAcs_E6gIAgkFT-9" vertex="1">
          <mxGeometry width="112" height="27" as="geometry">
            <mxRectangle width="112" height="27" as="alternateBounds" />
          </mxGeometry>
        </mxCell>
        <mxCell id="XRyfRLnAcs_E6gIAgkFT-11" value="Next Hop" style="shape=partialRectangle;html=1;whiteSpace=wrap;connectable=0;strokeColor=inherit;overflow=hidden;fillColor=none;top=0;left=0;bottom=0;right=0;pointerEvents=1;" parent="XRyfRLnAcs_E6gIAgkFT-9" vertex="1">
          <mxGeometry x="112" width="111" height="27" as="geometry">
            <mxRectangle width="111" height="27" as="alternateBounds" />
          </mxGeometry>
        </mxCell>
        <mxCell id="XRyfRLnAcs_E6gIAgkFT-12" value="" style="shape=tableRow;horizontal=0;startSize=0;swimlaneHead=0;swimlaneBody=0;strokeColor=inherit;top=0;left=0;bottom=0;right=0;collapsible=0;dropTarget=0;fillColor=none;points=[[0,0.5],[1,0.5]];portConstraint=eastwest;" parent="XRyfRLnAcs_E6gIAgkFT-8" vertex="1">
          <mxGeometry y="27" width="223" height="25" as="geometry" />
        </mxCell>
        <mxCell id="XRyfRLnAcs_E6gIAgkFT-13" value="192.168.1.128 /28" style="shape=partialRectangle;html=1;whiteSpace=wrap;connectable=0;strokeColor=inherit;overflow=hidden;fillColor=none;top=0;left=0;bottom=0;right=0;pointerEvents=1;" parent="XRyfRLnAcs_E6gIAgkFT-12" vertex="1">
          <mxGeometry width="112" height="25" as="geometry">
            <mxRectangle width="112" height="25" as="alternateBounds" />
          </mxGeometry>
        </mxCell>
        <mxCell id="XRyfRLnAcs_E6gIAgkFT-14" value="192.168.1.249" style="shape=partialRectangle;html=1;whiteSpace=wrap;connectable=0;strokeColor=inherit;overflow=hidden;fillColor=none;top=0;left=0;bottom=0;right=0;pointerEvents=1;" parent="XRyfRLnAcs_E6gIAgkFT-12" vertex="1">
          <mxGeometry x="112" width="111" height="25" as="geometry">
            <mxRectangle width="111" height="25" as="alternateBounds" />
          </mxGeometry>
        </mxCell>
        <mxCell id="XRyfRLnAcs_E6gIAgkFT-15" style="shape=tableRow;horizontal=0;startSize=0;swimlaneHead=0;swimlaneBody=0;strokeColor=inherit;top=0;left=0;bottom=0;right=0;collapsible=0;dropTarget=0;fillColor=none;points=[[0,0.5],[1,0.5]];portConstraint=eastwest;" parent="XRyfRLnAcs_E6gIAgkFT-8" vertex="1">
          <mxGeometry y="52" width="223" height="25" as="geometry" />
        </mxCell>
        <mxCell id="XRyfRLnAcs_E6gIAgkFT-16" value="192.168.1.144 /28" style="shape=partialRectangle;html=1;whiteSpace=wrap;connectable=0;strokeColor=inherit;overflow=hidden;fillColor=none;top=0;left=0;bottom=0;right=0;pointerEvents=1;" parent="XRyfRLnAcs_E6gIAgkFT-15" vertex="1">
          <mxGeometry width="112" height="25" as="geometry">
            <mxRectangle width="112" height="25" as="alternateBounds" />
          </mxGeometry>
        </mxCell>
        <mxCell id="XRyfRLnAcs_E6gIAgkFT-17" value="192.168.1.249" style="shape=partialRectangle;html=1;whiteSpace=wrap;connectable=0;strokeColor=inherit;overflow=hidden;fillColor=none;top=0;left=0;bottom=0;right=0;pointerEvents=1;" parent="XRyfRLnAcs_E6gIAgkFT-15" vertex="1">
          <mxGeometry x="112" width="111" height="25" as="geometry">
            <mxRectangle width="111" height="25" as="alternateBounds" />
          </mxGeometry>
        </mxCell>
        <mxCell id="XRyfRLnAcs_E6gIAgkFT-18" style="shape=tableRow;horizontal=0;startSize=0;swimlaneHead=0;swimlaneBody=0;strokeColor=inherit;top=0;left=0;bottom=0;right=0;collapsible=0;dropTarget=0;fillColor=none;points=[[0,0.5],[1,0.5]];portConstraint=eastwest;" parent="XRyfRLnAcs_E6gIAgkFT-8" vertex="1">
          <mxGeometry y="77" width="223" height="25" as="geometry" />
        </mxCell>
        <mxCell id="XRyfRLnAcs_E6gIAgkFT-19" value="192.168.1.160 /29" style="shape=partialRectangle;html=1;whiteSpace=wrap;connectable=0;strokeColor=inherit;overflow=hidden;fillColor=none;top=0;left=0;bottom=0;right=0;pointerEvents=1;" parent="XRyfRLnAcs_E6gIAgkFT-18" vertex="1">
          <mxGeometry width="112" height="25" as="geometry">
            <mxRectangle width="112" height="25" as="alternateBounds" />
          </mxGeometry>
        </mxCell>
        <mxCell id="XRyfRLnAcs_E6gIAgkFT-20" value="192.168.1.253" style="shape=partialRectangle;html=1;whiteSpace=wrap;connectable=0;strokeColor=inherit;overflow=hidden;fillColor=none;top=0;left=0;bottom=0;right=0;pointerEvents=1;" parent="XRyfRLnAcs_E6gIAgkFT-18" vertex="1">
          <mxGeometry x="112" width="111" height="25" as="geometry">
            <mxRectangle width="111" height="25" as="alternateBounds" />
          </mxGeometry>
        </mxCell>
        <mxCell id="PNCa-ICzKWlC2xwCv6Wq-1" style="shape=tableRow;horizontal=0;startSize=0;swimlaneHead=0;swimlaneBody=0;strokeColor=inherit;top=0;left=0;bottom=0;right=0;collapsible=0;dropTarget=0;fillColor=none;points=[[0,0.5],[1,0.5]];portConstraint=eastwest;" parent="XRyfRLnAcs_E6gIAgkFT-8" vertex="1">
          <mxGeometry y="102" width="223" height="25" as="geometry" />
        </mxCell>
        <mxCell id="PNCa-ICzKWlC2xwCv6Wq-2" value="192.168.1.168 /29" style="shape=partialRectangle;html=1;whiteSpace=wrap;connectable=0;strokeColor=inherit;overflow=hidden;fillColor=none;top=0;left=0;bottom=0;right=0;pointerEvents=1;" parent="PNCa-ICzKWlC2xwCv6Wq-1" vertex="1">
          <mxGeometry width="112" height="25" as="geometry">
            <mxRectangle width="112" height="25" as="alternateBounds" />
          </mxGeometry>
        </mxCell>
        <mxCell id="PNCa-ICzKWlC2xwCv6Wq-3" value="192.168.1.253" style="shape=partialRectangle;html=1;whiteSpace=wrap;connectable=0;strokeColor=inherit;overflow=hidden;fillColor=none;top=0;left=0;bottom=0;right=0;pointerEvents=1;" parent="PNCa-ICzKWlC2xwCv6Wq-1" vertex="1">
          <mxGeometry x="112" width="111" height="25" as="geometry">
            <mxRectangle width="111" height="25" as="alternateBounds" />
          </mxGeometry>
        </mxCell>
        <mxCell id="XRyfRLnAcs_E6gIAgkFT-24" style="shape=tableRow;horizontal=0;startSize=0;swimlaneHead=0;swimlaneBody=0;strokeColor=inherit;top=0;left=0;bottom=0;right=0;collapsible=0;dropTarget=0;fillColor=none;points=[[0,0.5],[1,0.5]];portConstraint=eastwest;" parent="XRyfRLnAcs_E6gIAgkFT-8" vertex="1">
          <mxGeometry y="127" width="223" height="25" as="geometry" />
        </mxCell>
        <mxCell id="XRyfRLnAcs_E6gIAgkFT-25" value="0.0.0.0 /0" style="shape=partialRectangle;html=1;whiteSpace=wrap;connectable=0;strokeColor=inherit;overflow=hidden;fillColor=none;top=0;left=0;bottom=0;right=0;pointerEvents=1;" parent="XRyfRLnAcs_E6gIAgkFT-24" vertex="1">
          <mxGeometry width="112" height="25" as="geometry">
            <mxRectangle width="112" height="25" as="alternateBounds" />
          </mxGeometry>
        </mxCell>
        <mxCell id="XRyfRLnAcs_E6gIAgkFT-26" value="170.0.0.1" style="shape=partialRectangle;html=1;whiteSpace=wrap;connectable=0;strokeColor=inherit;overflow=hidden;fillColor=none;top=0;left=0;bottom=0;right=0;pointerEvents=1;" parent="XRyfRLnAcs_E6gIAgkFT-24" vertex="1">
          <mxGeometry x="112" width="111" height="25" as="geometry">
            <mxRectangle width="111" height="25" as="alternateBounds" />
          </mxGeometry>
        </mxCell>
        <mxCell id="XRyfRLnAcs_E6gIAgkFT-27" value="" style="shape=table;startSize=0;container=1;collapsible=0;childLayout=tableLayout;" parent="1" vertex="1">
          <mxGeometry x="824" y="452" width="223" height="56.70833333333343" as="geometry" />
        </mxCell>
        <mxCell id="XRyfRLnAcs_E6gIAgkFT-28" value="" style="shape=tableRow;horizontal=0;startSize=0;swimlaneHead=0;swimlaneBody=0;strokeColor=inherit;top=0;left=0;bottom=0;right=0;collapsible=0;dropTarget=0;fillColor=none;points=[[0,0.5],[1,0.5]];portConstraint=eastwest;" parent="XRyfRLnAcs_E6gIAgkFT-27" vertex="1">
          <mxGeometry width="223" height="27" as="geometry" />
        </mxCell>
        <mxCell id="XRyfRLnAcs_E6gIAgkFT-29" value="Zielnetz inkl. SNM&lt;span style=&quot;white-space: pre;&quot;&gt;&#x9;&lt;/span&gt;" style="shape=partialRectangle;html=1;whiteSpace=wrap;connectable=0;strokeColor=inherit;overflow=hidden;fillColor=none;top=0;left=0;bottom=0;right=0;pointerEvents=1;" parent="XRyfRLnAcs_E6gIAgkFT-28" vertex="1">
          <mxGeometry width="112" height="27" as="geometry">
            <mxRectangle width="112" height="27" as="alternateBounds" />
          </mxGeometry>
        </mxCell>
        <mxCell id="XRyfRLnAcs_E6gIAgkFT-30" value="Next Hop" style="shape=partialRectangle;html=1;whiteSpace=wrap;connectable=0;strokeColor=inherit;overflow=hidden;fillColor=none;top=0;left=0;bottom=0;right=0;pointerEvents=1;" parent="XRyfRLnAcs_E6gIAgkFT-28" vertex="1">
          <mxGeometry x="112" width="111" height="27" as="geometry">
            <mxRectangle width="111" height="27" as="alternateBounds" />
          </mxGeometry>
        </mxCell>
        <mxCell id="XRyfRLnAcs_E6gIAgkFT-31" value="" style="shape=tableRow;horizontal=0;startSize=0;swimlaneHead=0;swimlaneBody=0;strokeColor=inherit;top=0;left=0;bottom=0;right=0;collapsible=0;dropTarget=0;fillColor=none;points=[[0,0.5],[1,0.5]];portConstraint=eastwest;" parent="XRyfRLnAcs_E6gIAgkFT-27" vertex="1">
          <mxGeometry y="27" width="223" height="30" as="geometry" />
        </mxCell>
        <mxCell id="XRyfRLnAcs_E6gIAgkFT-32" value="0.0.0.0 /0&lt;span style=&quot;white-space: pre;&quot;&gt;&#x9;&lt;/span&gt;" style="shape=partialRectangle;html=1;whiteSpace=wrap;connectable=0;strokeColor=inherit;overflow=hidden;fillColor=none;top=0;left=0;bottom=0;right=0;pointerEvents=1;" parent="XRyfRLnAcs_E6gIAgkFT-31" vertex="1">
          <mxGeometry width="112" height="30" as="geometry">
            <mxRectangle width="112" height="30" as="alternateBounds" />
          </mxGeometry>
        </mxCell>
        <mxCell id="XRyfRLnAcs_E6gIAgkFT-33" value="192.168.1.254" style="shape=partialRectangle;html=1;whiteSpace=wrap;connectable=0;strokeColor=inherit;overflow=hidden;fillColor=none;top=0;left=0;bottom=0;right=0;pointerEvents=1;" parent="XRyfRLnAcs_E6gIAgkFT-31" vertex="1">
          <mxGeometry x="112" width="111" height="30" as="geometry">
            <mxRectangle width="111" height="30" as="alternateBounds" />
          </mxGeometry>
        </mxCell>
        <mxCell id="I68hDzb51JsfYyY87rRW-1" value="Gig 2/0&lt;div&gt;DHCP&lt;/div&gt;" style="text;html=1;align=center;verticalAlign=middle;whiteSpace=wrap;rounded=0;" parent="1" vertex="1">
          <mxGeometry x="510" y="316" width="60" height="30" as="geometry" />
        </mxCell>
        <mxCell id="I68hDzb51JsfYyY87rRW-2" value="Gig 0/0" style="text;html=1;align=center;verticalAlign=middle;whiteSpace=wrap;rounded=0;" parent="1" vertex="1">
          <mxGeometry x="472" y="367" width="60" height="30" as="geometry" />
        </mxCell>
        <mxCell id="I68hDzb51JsfYyY87rRW-3" value="Gig 0/0" style="text;html=1;align=center;verticalAlign=middle;whiteSpace=wrap;rounded=0;" parent="1" vertex="1">
          <mxGeometry x="353" y="418" width="60" height="30" as="geometry" />
        </mxCell>
        <mxCell id="I68hDzb51JsfYyY87rRW-4" value="Gig 1/0" style="text;html=1;align=center;verticalAlign=middle;whiteSpace=wrap;rounded=0;" parent="1" vertex="1">
          <mxGeometry x="273.55" y="500" width="60" height="30" as="geometry" />
        </mxCell>
        <mxCell id="I68hDzb51JsfYyY87rRW-5" value="Gig 2/0" style="text;html=1;align=center;verticalAlign=middle;whiteSpace=wrap;rounded=0;" parent="1" vertex="1">
          <mxGeometry x="400" y="487" width="60" height="30" as="geometry" />
        </mxCell>
        <mxCell id="I68hDzb51JsfYyY87rRW-6" value="Gig 0/1" style="text;html=1;align=center;verticalAlign=middle;whiteSpace=wrap;rounded=0;" parent="1" vertex="1">
          <mxGeometry x="243" y="564" width="60" height="30" as="geometry" />
        </mxCell>
        <mxCell id="I68hDzb51JsfYyY87rRW-7" value="Gig 0/2" style="text;html=1;align=center;verticalAlign=middle;whiteSpace=wrap;rounded=0;" parent="1" vertex="1">
          <mxGeometry x="476" y="562" width="60" height="30" as="geometry" />
        </mxCell>
        <mxCell id="HLCc2ZZHKNdRBgJtL6DP-1" value="" style="rounded=0;whiteSpace=wrap;html=1;fillColor=none;strokeColor=#66FFFF;strokeWidth=3;" parent="1" vertex="1">
          <mxGeometry x="872" y="693" width="359" height="141" as="geometry" />
        </mxCell>
        <mxCell id="HLCc2ZZHKNdRBgJtL6DP-2" value="" style="rounded=0;whiteSpace=wrap;html=1;fillColor=none;strokeColor=#FF00FF;strokeWidth=3;" parent="1" vertex="1">
          <mxGeometry x="874" y="893" width="359" height="141" as="geometry" />
        </mxCell>
        <mxCell id="HLCc2ZZHKNdRBgJtL6DP-3" value="1.169&lt;div&gt;Azubi&lt;/div&gt;" style="shape=mxgraph.cisco.computers_and_peripherals.workstation;sketch=0;html=1;pointerEvents=1;dashed=0;fillColor=#036897;strokeColor=#ffffff;strokeWidth=2;verticalLabelPosition=bottom;verticalAlign=top;align=center;outlineConnect=0;" parent="1" vertex="1">
          <mxGeometry x="1024.72" y="730" width="53.55" height="40" as="geometry" />
        </mxCell>
        <mxCell id="HLCc2ZZHKNdRBgJtL6DP-4" value="1.170" style="shape=mxgraph.cisco.computers_and_peripherals.workstation;sketch=0;html=1;pointerEvents=1;dashed=0;fillColor=#036897;strokeColor=#ffffff;strokeWidth=2;verticalLabelPosition=bottom;verticalAlign=top;align=center;outlineConnect=0;" parent="1" vertex="1">
          <mxGeometry x="1131" y="730" width="53.55" height="40" as="geometry" />
        </mxCell>
        <mxCell id="HLCc2ZZHKNdRBgJtL6DP-5" value="192.168.1.168 /29" style="text;html=1;strokeColor=none;fillColor=none;align=center;verticalAlign=middle;whiteSpace=wrap;rounded=0;" parent="1" vertex="1">
          <mxGeometry x="1121" y="804" width="110" height="30" as="geometry" />
        </mxCell>
        <mxCell id="HLCc2ZZHKNdRBgJtL6DP-7" value="" style="endArrow=none;html=1;rounded=0;" parent="1" source="HLCc2ZZHKNdRBgJtL6DP-3" target="PNCa-ICzKWlC2xwCv6Wq-4" edge="1">
          <mxGeometry width="50" height="50" relative="1" as="geometry">
            <mxPoint x="783" y="512" as="sourcePoint" />
            <mxPoint x="762.8000000000002" y="631.2850728633321" as="targetPoint" />
          </mxGeometry>
        </mxCell>
        <mxCell id="HLCc2ZZHKNdRBgJtL6DP-8" value="" style="endArrow=none;html=1;rounded=0;" parent="1" source="HLCc2ZZHKNdRBgJtL6DP-4" target="PNCa-ICzKWlC2xwCv6Wq-4" edge="1">
          <mxGeometry width="50" height="50" relative="1" as="geometry">
            <mxPoint x="793" y="522" as="sourcePoint" />
            <mxPoint x="762.8000000000002" y="626.8064106440884" as="targetPoint" />
          </mxGeometry>
        </mxCell>
        <mxCell id="HLCc2ZZHKNdRBgJtL6DP-9" value="" style="shape=table;startSize=0;container=1;collapsible=0;childLayout=tableLayout;" parent="1" vertex="1">
          <mxGeometry x="1061" y="395" width="376" height="116.45833333333343" as="geometry" />
        </mxCell>
        <mxCell id="HLCc2ZZHKNdRBgJtL6DP-10" value="" style="shape=tableRow;horizontal=0;startSize=0;swimlaneHead=0;swimlaneBody=0;strokeColor=inherit;top=0;left=0;bottom=0;right=0;collapsible=0;dropTarget=0;fillColor=none;points=[[0,0.5],[1,0.5]];portConstraint=eastwest;" parent="HLCc2ZZHKNdRBgJtL6DP-9" vertex="1">
          <mxGeometry width="376" height="32" as="geometry" />
        </mxCell>
        <mxCell id="HLCc2ZZHKNdRBgJtL6DP-42" value="VLAN Nr." style="shape=partialRectangle;html=1;whiteSpace=wrap;connectable=0;strokeColor=inherit;overflow=hidden;fillColor=none;top=0;left=0;bottom=0;right=0;pointerEvents=1;" parent="HLCc2ZZHKNdRBgJtL6DP-10" vertex="1">
          <mxGeometry width="85" height="32" as="geometry">
            <mxRectangle width="85" height="32" as="alternateBounds" />
          </mxGeometry>
        </mxCell>
        <mxCell id="HLCc2ZZHKNdRBgJtL6DP-11" value="Name" style="shape=partialRectangle;html=1;whiteSpace=wrap;connectable=0;strokeColor=inherit;overflow=hidden;fillColor=none;top=0;left=0;bottom=0;right=0;pointerEvents=1;" parent="HLCc2ZZHKNdRBgJtL6DP-10" vertex="1">
          <mxGeometry x="85" width="92" height="32" as="geometry">
            <mxRectangle width="92" height="32" as="alternateBounds" />
          </mxGeometry>
        </mxCell>
        <mxCell id="HLCc2ZZHKNdRBgJtL6DP-12" value="Beschreibung" style="shape=partialRectangle;html=1;whiteSpace=wrap;connectable=0;strokeColor=inherit;overflow=hidden;fillColor=none;top=0;left=0;bottom=0;right=0;pointerEvents=1;" parent="HLCc2ZZHKNdRBgJtL6DP-10" vertex="1">
          <mxGeometry x="177" width="199" height="32" as="geometry">
            <mxRectangle width="199" height="32" as="alternateBounds" />
          </mxGeometry>
        </mxCell>
        <mxCell id="HLCc2ZZHKNdRBgJtL6DP-13" value="" style="shape=tableRow;horizontal=0;startSize=0;swimlaneHead=0;swimlaneBody=0;strokeColor=inherit;top=0;left=0;bottom=0;right=0;collapsible=0;dropTarget=0;fillColor=none;points=[[0,0.5],[1,0.5]];portConstraint=eastwest;" parent="HLCc2ZZHKNdRBgJtL6DP-9" vertex="1">
          <mxGeometry y="32" width="376" height="28" as="geometry" />
        </mxCell>
        <mxCell id="HLCc2ZZHKNdRBgJtL6DP-43" value="20" style="shape=partialRectangle;html=1;whiteSpace=wrap;connectable=0;strokeColor=inherit;overflow=hidden;fillColor=none;top=0;left=0;bottom=0;right=0;pointerEvents=1;" parent="HLCc2ZZHKNdRBgJtL6DP-13" vertex="1">
          <mxGeometry width="85" height="28" as="geometry">
            <mxRectangle width="85" height="28" as="alternateBounds" />
          </mxGeometry>
        </mxCell>
        <mxCell id="HLCc2ZZHKNdRBgJtL6DP-14" value="Entwicklung" style="shape=partialRectangle;html=1;whiteSpace=wrap;connectable=0;strokeColor=inherit;overflow=hidden;fillColor=none;top=0;left=0;bottom=0;right=0;pointerEvents=1;" parent="HLCc2ZZHKNdRBgJtL6DP-13" vertex="1">
          <mxGeometry x="85" width="92" height="28" as="geometry">
            <mxRectangle width="92" height="28" as="alternateBounds" />
          </mxGeometry>
        </mxCell>
        <mxCell id="HLCc2ZZHKNdRBgJtL6DP-15" value="bisheriges Netz im Gebäude 102" style="shape=partialRectangle;html=1;whiteSpace=wrap;connectable=0;strokeColor=inherit;overflow=hidden;fillColor=none;top=0;left=0;bottom=0;right=0;pointerEvents=1;" parent="HLCc2ZZHKNdRBgJtL6DP-13" vertex="1">
          <mxGeometry x="177" width="199" height="28" as="geometry">
            <mxRectangle width="199" height="28" as="alternateBounds" />
          </mxGeometry>
        </mxCell>
        <mxCell id="HLCc2ZZHKNdRBgJtL6DP-16" style="shape=tableRow;horizontal=0;startSize=0;swimlaneHead=0;swimlaneBody=0;strokeColor=inherit;top=0;left=0;bottom=0;right=0;collapsible=0;dropTarget=0;fillColor=none;points=[[0,0.5],[1,0.5]];portConstraint=eastwest;" parent="HLCc2ZZHKNdRBgJtL6DP-9" vertex="1">
          <mxGeometry y="60" width="376" height="28" as="geometry" />
        </mxCell>
        <mxCell id="HLCc2ZZHKNdRBgJtL6DP-44" value="10" style="shape=partialRectangle;html=1;whiteSpace=wrap;connectable=0;strokeColor=inherit;overflow=hidden;fillColor=none;top=0;left=0;bottom=0;right=0;pointerEvents=1;" parent="HLCc2ZZHKNdRBgJtL6DP-16" vertex="1">
          <mxGeometry width="85" height="28" as="geometry">
            <mxRectangle width="85" height="28" as="alternateBounds" />
          </mxGeometry>
        </mxCell>
        <mxCell id="HLCc2ZZHKNdRBgJtL6DP-17" value="IT" style="shape=partialRectangle;html=1;whiteSpace=wrap;connectable=0;strokeColor=inherit;overflow=hidden;fillColor=none;top=0;left=0;bottom=0;right=0;pointerEvents=1;" parent="HLCc2ZZHKNdRBgJtL6DP-16" vertex="1">
          <mxGeometry x="85" width="92" height="28" as="geometry">
            <mxRectangle width="92" height="28" as="alternateBounds" />
          </mxGeometry>
        </mxCell>
        <mxCell id="HLCc2ZZHKNdRBgJtL6DP-18" value="Für die neuen IT-Mitarbeiter" style="shape=partialRectangle;html=1;whiteSpace=wrap;connectable=0;strokeColor=inherit;overflow=hidden;fillColor=none;top=0;left=0;bottom=0;right=0;pointerEvents=1;" parent="HLCc2ZZHKNdRBgJtL6DP-16" vertex="1">
          <mxGeometry x="177" width="199" height="28" as="geometry">
            <mxRectangle width="199" height="28" as="alternateBounds" />
          </mxGeometry>
        </mxCell>
        <mxCell id="HLCc2ZZHKNdRBgJtL6DP-22" style="shape=tableRow;horizontal=0;startSize=0;swimlaneHead=0;swimlaneBody=0;strokeColor=inherit;top=0;left=0;bottom=0;right=0;collapsible=0;dropTarget=0;fillColor=none;points=[[0,0.5],[1,0.5]];portConstraint=eastwest;" parent="HLCc2ZZHKNdRBgJtL6DP-9" vertex="1">
          <mxGeometry y="88" width="376" height="28" as="geometry" />
        </mxCell>
        <mxCell id="HLCc2ZZHKNdRBgJtL6DP-46" value="2" style="shape=partialRectangle;html=1;whiteSpace=wrap;connectable=0;strokeColor=inherit;overflow=hidden;fillColor=none;top=0;left=0;bottom=0;right=0;pointerEvents=1;" parent="HLCc2ZZHKNdRBgJtL6DP-22" vertex="1">
          <mxGeometry width="85" height="28" as="geometry">
            <mxRectangle width="85" height="28" as="alternateBounds" />
          </mxGeometry>
        </mxCell>
        <mxCell id="HLCc2ZZHKNdRBgJtL6DP-23" value="Parken" style="shape=partialRectangle;html=1;whiteSpace=wrap;connectable=0;strokeColor=inherit;overflow=hidden;fillColor=none;top=0;left=0;bottom=0;right=0;pointerEvents=1;" parent="HLCc2ZZHKNdRBgJtL6DP-22" vertex="1">
          <mxGeometry x="85" width="92" height="28" as="geometry">
            <mxRectangle width="92" height="28" as="alternateBounds" />
          </mxGeometry>
        </mxCell>
        <mxCell id="HLCc2ZZHKNdRBgJtL6DP-24" value="Für alle ungenutzten Switchports" style="shape=partialRectangle;html=1;whiteSpace=wrap;connectable=0;strokeColor=inherit;overflow=hidden;fillColor=none;top=0;left=0;bottom=0;right=0;pointerEvents=1;" parent="HLCc2ZZHKNdRBgJtL6DP-22" vertex="1">
          <mxGeometry x="177" width="199" height="28" as="geometry">
            <mxRectangle width="199" height="28" as="alternateBounds" />
          </mxGeometry>
        </mxCell>
        <mxCell id="HLCc2ZZHKNdRBgJtL6DP-47" value="Entwicklung" style="shape=partialRectangle;html=1;whiteSpace=wrap;connectable=0;strokeColor=inherit;overflow=hidden;fillColor=none;top=0;left=0;bottom=0;right=0;pointerEvents=1;" parent="1" vertex="1">
          <mxGeometry x="1088" y="542" width="199" height="28" as="geometry">
            <mxRectangle width="199" height="28" as="alternateBounds" />
          </mxGeometry>
        </mxCell>
        <mxCell id="HLCc2ZZHKNdRBgJtL6DP-48" value="IT" style="shape=partialRectangle;html=1;whiteSpace=wrap;connectable=0;strokeColor=inherit;overflow=hidden;fillColor=none;top=0;left=0;bottom=0;right=0;pointerEvents=1;" parent="1" vertex="1">
          <mxGeometry x="1121" y="690" width="199" height="28" as="geometry">
            <mxRectangle width="199" height="28" as="alternateBounds" />
          </mxGeometry>
        </mxCell>
        <mxCell id="HLCc2ZZHKNdRBgJtL6DP-49" value="Parken" style="shape=partialRectangle;html=1;whiteSpace=wrap;connectable=0;strokeColor=inherit;overflow=hidden;fillColor=none;top=0;left=0;bottom=0;right=0;pointerEvents=1;" parent="1" vertex="1">
          <mxGeometry x="907" y="893" width="199" height="28" as="geometry">
            <mxRectangle width="199" height="28" as="alternateBounds" />
          </mxGeometry>
        </mxCell>
        <mxCell id="n02jYfm1TX7S2Gxko_I4-1" value="EV DG 102" style="shape=mxgraph.cisco.switches.workgroup_switch;sketch=0;html=1;pointerEvents=1;dashed=0;fillColor=#036897;strokeColor=#ffffff;strokeWidth=2;verticalLabelPosition=bottom;verticalAlign=top;align=center;outlineConnect=0;" parent="1" vertex="1">
          <mxGeometry x="650" y="957" width="80.8" height="40" as="geometry" />
        </mxCell>
        <mxCell id="n02jYfm1TX7S2Gxko_I4-2" value="" style="shape=table;startSize=0;container=1;collapsible=0;childLayout=tableLayout;" parent="1" vertex="1">
          <mxGeometry x="460" y="1048" width="376" height="114" as="geometry" />
        </mxCell>
        <mxCell id="n02jYfm1TX7S2Gxko_I4-3" value="" style="shape=tableRow;horizontal=0;startSize=0;swimlaneHead=0;swimlaneBody=0;strokeColor=inherit;top=0;left=0;bottom=0;right=0;collapsible=0;dropTarget=0;fillColor=none;points=[[0,0.5],[1,0.5]];portConstraint=eastwest;" parent="n02jYfm1TX7S2Gxko_I4-2" vertex="1">
          <mxGeometry width="376" height="30" as="geometry" />
        </mxCell>
        <mxCell id="n02jYfm1TX7S2Gxko_I4-4" value="VLAN Nr." style="shape=partialRectangle;html=1;whiteSpace=wrap;connectable=0;strokeColor=inherit;overflow=hidden;fillColor=none;top=0;left=0;bottom=0;right=0;pointerEvents=1;" parent="n02jYfm1TX7S2Gxko_I4-3" vertex="1">
          <mxGeometry width="85" height="30" as="geometry">
            <mxRectangle width="85" height="30" as="alternateBounds" />
          </mxGeometry>
        </mxCell>
        <mxCell id="n02jYfm1TX7S2Gxko_I4-5" value="Name" style="shape=partialRectangle;html=1;whiteSpace=wrap;connectable=0;strokeColor=inherit;overflow=hidden;fillColor=none;top=0;left=0;bottom=0;right=0;pointerEvents=1;" parent="n02jYfm1TX7S2Gxko_I4-3" vertex="1">
          <mxGeometry x="85" width="92" height="30" as="geometry">
            <mxRectangle width="92" height="30" as="alternateBounds" />
          </mxGeometry>
        </mxCell>
        <mxCell id="n02jYfm1TX7S2Gxko_I4-6" value="Beschreibung" style="shape=partialRectangle;html=1;whiteSpace=wrap;connectable=0;strokeColor=inherit;overflow=hidden;fillColor=none;top=0;left=0;bottom=0;right=0;pointerEvents=1;" parent="n02jYfm1TX7S2Gxko_I4-3" vertex="1">
          <mxGeometry x="177" width="199" height="30" as="geometry">
            <mxRectangle width="199" height="30" as="alternateBounds" />
          </mxGeometry>
        </mxCell>
        <mxCell id="n02jYfm1TX7S2Gxko_I4-7" value="" style="shape=tableRow;horizontal=0;startSize=0;swimlaneHead=0;swimlaneBody=0;strokeColor=inherit;top=0;left=0;bottom=0;right=0;collapsible=0;dropTarget=0;fillColor=none;points=[[0,0.5],[1,0.5]];portConstraint=eastwest;" parent="n02jYfm1TX7S2Gxko_I4-2" vertex="1">
          <mxGeometry y="30" width="376" height="28" as="geometry" />
        </mxCell>
        <mxCell id="n02jYfm1TX7S2Gxko_I4-8" value="20" style="shape=partialRectangle;html=1;whiteSpace=wrap;connectable=0;strokeColor=inherit;overflow=hidden;fillColor=none;top=0;left=0;bottom=0;right=0;pointerEvents=1;" parent="n02jYfm1TX7S2Gxko_I4-7" vertex="1">
          <mxGeometry width="85" height="28" as="geometry">
            <mxRectangle width="85" height="28" as="alternateBounds" />
          </mxGeometry>
        </mxCell>
        <mxCell id="n02jYfm1TX7S2Gxko_I4-9" value="Entwicklung" style="shape=partialRectangle;html=1;whiteSpace=wrap;connectable=0;strokeColor=inherit;overflow=hidden;fillColor=none;top=0;left=0;bottom=0;right=0;pointerEvents=1;" parent="n02jYfm1TX7S2Gxko_I4-7" vertex="1">
          <mxGeometry x="85" width="92" height="28" as="geometry">
            <mxRectangle width="92" height="28" as="alternateBounds" />
          </mxGeometry>
        </mxCell>
        <mxCell id="n02jYfm1TX7S2Gxko_I4-10" value="bisheriges Netz im Gebäude 102" style="shape=partialRectangle;html=1;whiteSpace=wrap;connectable=0;strokeColor=inherit;overflow=hidden;fillColor=none;top=0;left=0;bottom=0;right=0;pointerEvents=1;" parent="n02jYfm1TX7S2Gxko_I4-7" vertex="1">
          <mxGeometry x="177" width="199" height="28" as="geometry">
            <mxRectangle width="199" height="28" as="alternateBounds" />
          </mxGeometry>
        </mxCell>
        <mxCell id="n02jYfm1TX7S2Gxko_I4-11" style="shape=tableRow;horizontal=0;startSize=0;swimlaneHead=0;swimlaneBody=0;strokeColor=inherit;top=0;left=0;bottom=0;right=0;collapsible=0;dropTarget=0;fillColor=none;points=[[0,0.5],[1,0.5]];portConstraint=eastwest;" parent="n02jYfm1TX7S2Gxko_I4-2" vertex="1">
          <mxGeometry y="58" width="376" height="28" as="geometry" />
        </mxCell>
        <mxCell id="n02jYfm1TX7S2Gxko_I4-12" value="10" style="shape=partialRectangle;html=1;whiteSpace=wrap;connectable=0;strokeColor=inherit;overflow=hidden;fillColor=none;top=0;left=0;bottom=0;right=0;pointerEvents=1;" parent="n02jYfm1TX7S2Gxko_I4-11" vertex="1">
          <mxGeometry width="85" height="28" as="geometry">
            <mxRectangle width="85" height="28" as="alternateBounds" />
          </mxGeometry>
        </mxCell>
        <mxCell id="n02jYfm1TX7S2Gxko_I4-13" value="IT" style="shape=partialRectangle;html=1;whiteSpace=wrap;connectable=0;strokeColor=inherit;overflow=hidden;fillColor=none;top=0;left=0;bottom=0;right=0;pointerEvents=1;" parent="n02jYfm1TX7S2Gxko_I4-11" vertex="1">
          <mxGeometry x="85" width="92" height="28" as="geometry">
            <mxRectangle width="92" height="28" as="alternateBounds" />
          </mxGeometry>
        </mxCell>
        <mxCell id="n02jYfm1TX7S2Gxko_I4-14" value="Für die neuen IT-Mitarbeiter" style="shape=partialRectangle;html=1;whiteSpace=wrap;connectable=0;strokeColor=inherit;overflow=hidden;fillColor=none;top=0;left=0;bottom=0;right=0;pointerEvents=1;" parent="n02jYfm1TX7S2Gxko_I4-11" vertex="1">
          <mxGeometry x="177" width="199" height="28" as="geometry">
            <mxRectangle width="199" height="28" as="alternateBounds" />
          </mxGeometry>
        </mxCell>
        <mxCell id="n02jYfm1TX7S2Gxko_I4-15" style="shape=tableRow;horizontal=0;startSize=0;swimlaneHead=0;swimlaneBody=0;strokeColor=inherit;top=0;left=0;bottom=0;right=0;collapsible=0;dropTarget=0;fillColor=none;points=[[0,0.5],[1,0.5]];portConstraint=eastwest;" parent="n02jYfm1TX7S2Gxko_I4-2" vertex="1">
          <mxGeometry y="86" width="376" height="28" as="geometry" />
        </mxCell>
        <mxCell id="n02jYfm1TX7S2Gxko_I4-16" value="2" style="shape=partialRectangle;html=1;whiteSpace=wrap;connectable=0;strokeColor=inherit;overflow=hidden;fillColor=none;top=0;left=0;bottom=0;right=0;pointerEvents=1;" parent="n02jYfm1TX7S2Gxko_I4-15" vertex="1">
          <mxGeometry width="85" height="28" as="geometry">
            <mxRectangle width="85" height="28" as="alternateBounds" />
          </mxGeometry>
        </mxCell>
        <mxCell id="n02jYfm1TX7S2Gxko_I4-17" value="Parken" style="shape=partialRectangle;html=1;whiteSpace=wrap;connectable=0;strokeColor=inherit;overflow=hidden;fillColor=none;top=0;left=0;bottom=0;right=0;pointerEvents=1;" parent="n02jYfm1TX7S2Gxko_I4-15" vertex="1">
          <mxGeometry x="85" width="92" height="28" as="geometry">
            <mxRectangle width="92" height="28" as="alternateBounds" />
          </mxGeometry>
        </mxCell>
        <mxCell id="n02jYfm1TX7S2Gxko_I4-18" value="Für alle ungenutzten Switchports" style="shape=partialRectangle;html=1;whiteSpace=wrap;connectable=0;strokeColor=inherit;overflow=hidden;fillColor=none;top=0;left=0;bottom=0;right=0;pointerEvents=1;" parent="n02jYfm1TX7S2Gxko_I4-15" vertex="1">
          <mxGeometry x="177" width="199" height="28" as="geometry">
            <mxRectangle width="199" height="28" as="alternateBounds" />
          </mxGeometry>
        </mxCell>
        <mxCell id="n02jYfm1TX7S2Gxko_I4-20" value="1.171&lt;div&gt;Abt.-Leiter&lt;/div&gt;" style="shape=mxgraph.cisco.computers_and_peripherals.workstation;sketch=0;html=1;pointerEvents=1;dashed=0;fillColor=#036897;strokeColor=#ffffff;strokeWidth=2;verticalLabelPosition=bottom;verticalAlign=top;align=center;outlineConnect=0;" parent="1" vertex="1">
          <mxGeometry x="927.45" y="747" width="53.55" height="40" as="geometry" />
        </mxCell>
        <mxCell id="n02jYfm1TX7S2Gxko_I4-21" value="" style="shape=mxgraph.cisco.computers_and_peripherals.workstation;sketch=0;html=1;pointerEvents=1;dashed=0;fillColor=#036897;strokeColor=#ffffff;strokeWidth=2;verticalLabelPosition=bottom;verticalAlign=top;align=center;outlineConnect=0;" parent="1" vertex="1">
          <mxGeometry x="892" y="640" width="53.55" height="40" as="geometry" />
        </mxCell>
        <mxCell id="n02jYfm1TX7S2Gxko_I4-26" value="" style="endArrow=none;html=1;rounded=0;exitX=0.11;exitY=0.5;exitDx=0;exitDy=0;exitPerimeter=0;entryX=0.87;entryY=0.74;entryDx=0;entryDy=0;entryPerimeter=0;" parent="1" source="n02jYfm1TX7S2Gxko_I4-20" target="n02jYfm1TX7S2Gxko_I4-1" edge="1">
          <mxGeometry width="50" height="50" relative="1" as="geometry">
            <mxPoint x="783" y="512" as="sourcePoint" />
            <mxPoint x="707" y="734" as="targetPoint" />
          </mxGeometry>
        </mxCell>
        <mxCell id="n02jYfm1TX7S2Gxko_I4-27" value="" style="endArrow=none;html=1;rounded=0;exitX=0;exitY=1;exitDx=0;exitDy=0;exitPerimeter=0;entryX=1;entryY=0;entryDx=0;entryDy=0;entryPerimeter=0;" parent="1" source="n02jYfm1TX7S2Gxko_I4-21" target="n02jYfm1TX7S2Gxko_I4-1" edge="1">
          <mxGeometry width="50" height="50" relative="1" as="geometry">
            <mxPoint x="955" y="817" as="sourcePoint" />
            <mxPoint x="730" y="997" as="targetPoint" />
          </mxGeometry>
        </mxCell>
        <mxCell id="n02jYfm1TX7S2Gxko_I4-28" value="" style="endArrow=none;html=1;rounded=0;exitX=0.5;exitY=1;exitDx=0;exitDy=0;exitPerimeter=0;entryX=0.5;entryY=0;entryDx=0;entryDy=0;entryPerimeter=0;" parent="1" source="PNCa-ICzKWlC2xwCv6Wq-4" target="n02jYfm1TX7S2Gxko_I4-1" edge="1">
          <mxGeometry width="50" height="50" relative="1" as="geometry">
            <mxPoint x="722.4000000000001" y="631.2" as="sourcePoint" />
            <mxPoint x="741" y="967" as="targetPoint" />
          </mxGeometry>
        </mxCell>
        <object label="GV/EV 102 OG" id="PNCa-ICzKWlC2xwCv6Wq-4">
          <mxCell style="shape=mxgraph.cisco.switches.layer_3_switch;sketch=0;html=1;pointerEvents=1;dashed=0;fillColor=#036897;strokeColor=#ffffff;strokeWidth=2;verticalLabelPosition=bottom;verticalAlign=top;align=center;outlineConnect=0;" parent="1" vertex="1">
            <mxGeometry x="703.5" y="474" width="64" height="64" as="geometry" />
          </mxCell>
        </object>
        <mxCell id="PNCa-ICzKWlC2xwCv6Wq-5" value="" style="shape=table;startSize=0;container=1;collapsible=0;childLayout=tableLayout;" parent="1" vertex="1">
          <mxGeometry x="823" y="367" width="223" height="81.58333333333337" as="geometry" />
        </mxCell>
        <mxCell id="PNCa-ICzKWlC2xwCv6Wq-6" value="" style="shape=tableRow;horizontal=0;startSize=0;swimlaneHead=0;swimlaneBody=0;strokeColor=inherit;top=0;left=0;bottom=0;right=0;collapsible=0;dropTarget=0;fillColor=none;points=[[0,0.5],[1,0.5]];portConstraint=eastwest;" parent="PNCa-ICzKWlC2xwCv6Wq-5" vertex="1">
          <mxGeometry width="223" height="27" as="geometry" />
        </mxCell>
        <mxCell id="PNCa-ICzKWlC2xwCv6Wq-7" value="SVI" style="shape=partialRectangle;html=1;whiteSpace=wrap;connectable=0;strokeColor=inherit;overflow=hidden;fillColor=none;top=0;left=0;bottom=0;right=0;pointerEvents=1;" parent="PNCa-ICzKWlC2xwCv6Wq-6" vertex="1">
          <mxGeometry width="112" height="27" as="geometry">
            <mxRectangle width="112" height="27" as="alternateBounds" />
          </mxGeometry>
        </mxCell>
        <mxCell id="PNCa-ICzKWlC2xwCv6Wq-8" value="IP inkl. SNM" style="shape=partialRectangle;html=1;whiteSpace=wrap;connectable=0;strokeColor=inherit;overflow=hidden;fillColor=none;top=0;left=0;bottom=0;right=0;pointerEvents=1;" parent="PNCa-ICzKWlC2xwCv6Wq-6" vertex="1">
          <mxGeometry x="112" width="111" height="27" as="geometry">
            <mxRectangle width="111" height="27" as="alternateBounds" />
          </mxGeometry>
        </mxCell>
        <mxCell id="PNCa-ICzKWlC2xwCv6Wq-9" value="" style="shape=tableRow;horizontal=0;startSize=0;swimlaneHead=0;swimlaneBody=0;strokeColor=inherit;top=0;left=0;bottom=0;right=0;collapsible=0;dropTarget=0;fillColor=none;points=[[0,0.5],[1,0.5]];portConstraint=eastwest;" parent="PNCa-ICzKWlC2xwCv6Wq-5" vertex="1">
          <mxGeometry y="27" width="223" height="28" as="geometry" />
        </mxCell>
        <mxCell id="PNCa-ICzKWlC2xwCv6Wq-10" value="vlan 10" style="shape=partialRectangle;html=1;whiteSpace=wrap;connectable=0;strokeColor=inherit;overflow=hidden;fillColor=none;top=0;left=0;bottom=0;right=0;pointerEvents=1;" parent="PNCa-ICzKWlC2xwCv6Wq-9" vertex="1">
          <mxGeometry width="112" height="28" as="geometry">
            <mxRectangle width="112" height="28" as="alternateBounds" />
          </mxGeometry>
        </mxCell>
        <mxCell id="PNCa-ICzKWlC2xwCv6Wq-11" value="192.168.1.168 /29" style="shape=partialRectangle;html=1;whiteSpace=wrap;connectable=0;strokeColor=inherit;overflow=hidden;fillColor=none;top=0;left=0;bottom=0;right=0;pointerEvents=1;" parent="PNCa-ICzKWlC2xwCv6Wq-9" vertex="1">
          <mxGeometry x="112" width="111" height="28" as="geometry">
            <mxRectangle width="111" height="28" as="alternateBounds" />
          </mxGeometry>
        </mxCell>
        <mxCell id="PNCa-ICzKWlC2xwCv6Wq-12" value="" style="shape=tableRow;horizontal=0;startSize=0;swimlaneHead=0;swimlaneBody=0;strokeColor=inherit;top=0;left=0;bottom=0;right=0;collapsible=0;dropTarget=0;fillColor=none;points=[[0,0.5],[1,0.5]];portConstraint=eastwest;" parent="PNCa-ICzKWlC2xwCv6Wq-5" vertex="1">
          <mxGeometry y="55" width="223" height="27" as="geometry" />
        </mxCell>
        <mxCell id="PNCa-ICzKWlC2xwCv6Wq-13" value="vlan 20" style="shape=partialRectangle;html=1;whiteSpace=wrap;connectable=0;strokeColor=inherit;overflow=hidden;fillColor=none;top=0;left=0;bottom=0;right=0;pointerEvents=1;" parent="PNCa-ICzKWlC2xwCv6Wq-12" vertex="1">
          <mxGeometry width="112" height="27" as="geometry">
            <mxRectangle width="112" height="27" as="alternateBounds" />
          </mxGeometry>
        </mxCell>
        <mxCell id="PNCa-ICzKWlC2xwCv6Wq-14" value="192.168.1.160 /29" style="shape=partialRectangle;html=1;whiteSpace=wrap;connectable=0;strokeColor=inherit;overflow=hidden;fillColor=none;top=0;left=0;bottom=0;right=0;pointerEvents=1;" parent="PNCa-ICzKWlC2xwCv6Wq-12" vertex="1">
          <mxGeometry x="112" width="111" height="27" as="geometry">
            <mxRectangle width="111" height="27" as="alternateBounds" />
          </mxGeometry>
        </mxCell>
        <mxCell id="02UI2pdwLbwrpsEyUzrz-1" value="&quot;E_Internet&quot; out Gig 2/0" style="shape=table;startSize=25;container=1;collapsible=0;childLayout=tableLayout;points=[[0,0,0,0,0],[0,0.25,0,0,0],[0,0.5,0,0,0],[0,0.75,0,0,0],[0,1,0,0,0],[0.12,0.98,0,0,0],[0.25,0,0,0,0],[0.32,1,0,0,1],[0.5,0,0,0,0],[0.52,1,0,0,0],[0.68,1,0,0,1],[0.75,0,0,0,0],[0.75,1,0,0,1],[0.86,1,0,0,1],[1,0,0,0,0],[1,0.25,0,0,0],[1,0.5,0,0,0],[1,0.75,0,0,0],[1,1,0,0,0]];" parent="1" vertex="1">
          <mxGeometry x="834" y="185" width="560.8331451416029" height="167.20833333333343" as="geometry" />
        </mxCell>
        <mxCell id="02UI2pdwLbwrpsEyUzrz-2" value="" style="shape=tableRow;horizontal=0;startSize=0;swimlaneHead=0;swimlaneBody=0;strokeColor=inherit;top=0;left=0;bottom=0;right=0;collapsible=0;dropTarget=0;fillColor=none;points=[[0,0.5],[1,0.5]];portConstraint=eastwest;" parent="02UI2pdwLbwrpsEyUzrz-1" vertex="1">
          <mxGeometry y="25" width="560.8331451416029" height="20" as="geometry" />
        </mxCell>
        <mxCell id="02UI2pdwLbwrpsEyUzrz-3" value="Sequenz" style="shape=partialRectangle;html=1;whiteSpace=wrap;connectable=0;strokeColor=inherit;overflow=hidden;fillColor=none;top=0;left=0;bottom=0;right=0;pointerEvents=1;" parent="02UI2pdwLbwrpsEyUzrz-2" vertex="1">
          <mxGeometry width="74" height="20" as="geometry">
            <mxRectangle width="74" height="20" as="alternateBounds" />
          </mxGeometry>
        </mxCell>
        <mxCell id="02UI2pdwLbwrpsEyUzrz-4" value="permit/deny" style="shape=partialRectangle;html=1;whiteSpace=wrap;connectable=0;strokeColor=inherit;overflow=hidden;fillColor=none;top=0;left=0;bottom=0;right=0;pointerEvents=1;" parent="02UI2pdwLbwrpsEyUzrz-2" vertex="1">
          <mxGeometry x="74" width="92" height="20" as="geometry">
            <mxRectangle width="92" height="20" as="alternateBounds" />
          </mxGeometry>
        </mxCell>
        <mxCell id="02UI2pdwLbwrpsEyUzrz-5" value="Protokoll" style="shape=partialRectangle;html=1;whiteSpace=wrap;connectable=0;strokeColor=inherit;overflow=hidden;fillColor=none;top=0;left=0;bottom=0;right=0;pointerEvents=1;" parent="02UI2pdwLbwrpsEyUzrz-2" vertex="1">
          <mxGeometry x="166" width="74" height="20" as="geometry">
            <mxRectangle width="74" height="20" as="alternateBounds" />
          </mxGeometry>
        </mxCell>
        <mxCell id="-uSf08AOs2qsv8gaqKc9-1" value="Quell-Host/-Netz" style="shape=partialRectangle;html=1;whiteSpace=wrap;connectable=0;strokeColor=inherit;overflow=hidden;fillColor=none;top=0;left=0;bottom=0;right=0;pointerEvents=1;" vertex="1" parent="02UI2pdwLbwrpsEyUzrz-2">
          <mxGeometry x="240" width="140" height="20" as="geometry">
            <mxRectangle width="140" height="20" as="alternateBounds" />
          </mxGeometry>
        </mxCell>
        <mxCell id="-uSf08AOs2qsv8gaqKc9-7" value="Ziel-Host/-Netz" style="shape=partialRectangle;html=1;whiteSpace=wrap;connectable=0;strokeColor=inherit;overflow=hidden;fillColor=none;top=0;left=0;bottom=0;right=0;pointerEvents=1;" vertex="1" parent="02UI2pdwLbwrpsEyUzrz-2">
          <mxGeometry x="380" width="126" height="20" as="geometry">
            <mxRectangle width="126" height="20" as="alternateBounds" />
          </mxGeometry>
        </mxCell>
        <mxCell id="-uSf08AOs2qsv8gaqKc9-14" value="(Port)" style="shape=partialRectangle;html=1;whiteSpace=wrap;connectable=0;strokeColor=inherit;overflow=hidden;fillColor=none;top=0;left=0;bottom=0;right=0;pointerEvents=1;" vertex="1" parent="02UI2pdwLbwrpsEyUzrz-2">
          <mxGeometry x="506" width="55" height="20" as="geometry">
            <mxRectangle width="55" height="20" as="alternateBounds" />
          </mxGeometry>
        </mxCell>
        <mxCell id="02UI2pdwLbwrpsEyUzrz-6" value="" style="shape=tableRow;horizontal=0;startSize=0;swimlaneHead=0;swimlaneBody=0;strokeColor=inherit;top=0;left=0;bottom=0;right=0;collapsible=0;dropTarget=0;fillColor=none;points=[[0,0.5],[1,0.5]];portConstraint=eastwest;" parent="02UI2pdwLbwrpsEyUzrz-1" vertex="1">
          <mxGeometry y="45" width="560.8331451416029" height="21" as="geometry" />
        </mxCell>
        <mxCell id="02UI2pdwLbwrpsEyUzrz-7" value="10" style="shape=partialRectangle;html=1;whiteSpace=wrap;connectable=0;strokeColor=inherit;overflow=hidden;fillColor=none;top=0;left=0;bottom=0;right=0;pointerEvents=1;" parent="02UI2pdwLbwrpsEyUzrz-6" vertex="1">
          <mxGeometry width="74" height="21" as="geometry">
            <mxRectangle width="74" height="21" as="alternateBounds" />
          </mxGeometry>
        </mxCell>
        <mxCell id="02UI2pdwLbwrpsEyUzrz-8" value="permit" style="shape=partialRectangle;html=1;whiteSpace=wrap;connectable=0;strokeColor=inherit;overflow=hidden;fillColor=none;top=0;left=0;bottom=0;right=0;pointerEvents=1;" parent="02UI2pdwLbwrpsEyUzrz-6" vertex="1">
          <mxGeometry x="74" width="92" height="21" as="geometry">
            <mxRectangle width="92" height="21" as="alternateBounds" />
          </mxGeometry>
        </mxCell>
        <mxCell id="02UI2pdwLbwrpsEyUzrz-9" value="http" style="shape=partialRectangle;html=1;whiteSpace=wrap;connectable=0;strokeColor=inherit;overflow=hidden;fillColor=none;top=0;left=0;bottom=0;right=0;pointerEvents=1;" parent="02UI2pdwLbwrpsEyUzrz-6" vertex="1">
          <mxGeometry x="166" width="74" height="21" as="geometry">
            <mxRectangle width="74" height="21" as="alternateBounds" />
          </mxGeometry>
        </mxCell>
        <mxCell id="-uSf08AOs2qsv8gaqKc9-2" value="192.168.1.169" style="shape=partialRectangle;html=1;whiteSpace=wrap;connectable=0;strokeColor=inherit;overflow=hidden;fillColor=none;top=0;left=0;bottom=0;right=0;pointerEvents=1;" vertex="1" parent="02UI2pdwLbwrpsEyUzrz-6">
          <mxGeometry x="240" width="140" height="21" as="geometry">
            <mxRectangle width="140" height="21" as="alternateBounds" />
          </mxGeometry>
        </mxCell>
        <mxCell id="-uSf08AOs2qsv8gaqKc9-8" value="172.0.0.2" style="shape=partialRectangle;html=1;whiteSpace=wrap;connectable=0;strokeColor=inherit;overflow=hidden;fillColor=none;top=0;left=0;bottom=0;right=0;pointerEvents=1;" vertex="1" parent="02UI2pdwLbwrpsEyUzrz-6">
          <mxGeometry x="380" width="126" height="21" as="geometry">
            <mxRectangle width="126" height="21" as="alternateBounds" />
          </mxGeometry>
        </mxCell>
        <mxCell id="-uSf08AOs2qsv8gaqKc9-15" style="shape=partialRectangle;html=1;whiteSpace=wrap;connectable=0;strokeColor=inherit;overflow=hidden;fillColor=none;top=0;left=0;bottom=0;right=0;pointerEvents=1;" vertex="1" parent="02UI2pdwLbwrpsEyUzrz-6">
          <mxGeometry x="506" width="55" height="21" as="geometry">
            <mxRectangle width="55" height="21" as="alternateBounds" />
          </mxGeometry>
        </mxCell>
        <mxCell id="-uSf08AOs2qsv8gaqKc9-20" style="shape=tableRow;horizontal=0;startSize=0;swimlaneHead=0;swimlaneBody=0;strokeColor=inherit;top=0;left=0;bottom=0;right=0;collapsible=0;dropTarget=0;fillColor=none;points=[[0,0.5],[1,0.5]];portConstraint=eastwest;" vertex="1" parent="02UI2pdwLbwrpsEyUzrz-1">
          <mxGeometry y="66" width="560.8331451416029" height="21" as="geometry" />
        </mxCell>
        <mxCell id="-uSf08AOs2qsv8gaqKc9-21" value="20" style="shape=partialRectangle;html=1;whiteSpace=wrap;connectable=0;strokeColor=inherit;overflow=hidden;fillColor=none;top=0;left=0;bottom=0;right=0;pointerEvents=1;" vertex="1" parent="-uSf08AOs2qsv8gaqKc9-20">
          <mxGeometry width="74" height="21" as="geometry">
            <mxRectangle width="74" height="21" as="alternateBounds" />
          </mxGeometry>
        </mxCell>
        <mxCell id="-uSf08AOs2qsv8gaqKc9-22" value="permit" style="shape=partialRectangle;html=1;whiteSpace=wrap;connectable=0;strokeColor=inherit;overflow=hidden;fillColor=none;top=0;left=0;bottom=0;right=0;pointerEvents=1;" vertex="1" parent="-uSf08AOs2qsv8gaqKc9-20">
          <mxGeometry x="74" width="92" height="21" as="geometry">
            <mxRectangle width="92" height="21" as="alternateBounds" />
          </mxGeometry>
        </mxCell>
        <mxCell id="-uSf08AOs2qsv8gaqKc9-23" value="https" style="shape=partialRectangle;html=1;whiteSpace=wrap;connectable=0;strokeColor=inherit;overflow=hidden;fillColor=none;top=0;left=0;bottom=0;right=0;pointerEvents=1;" vertex="1" parent="-uSf08AOs2qsv8gaqKc9-20">
          <mxGeometry x="166" width="74" height="21" as="geometry">
            <mxRectangle width="74" height="21" as="alternateBounds" />
          </mxGeometry>
        </mxCell>
        <mxCell id="-uSf08AOs2qsv8gaqKc9-24" value="192.168.1.169" style="shape=partialRectangle;html=1;whiteSpace=wrap;connectable=0;strokeColor=inherit;overflow=hidden;fillColor=none;top=0;left=0;bottom=0;right=0;pointerEvents=1;" vertex="1" parent="-uSf08AOs2qsv8gaqKc9-20">
          <mxGeometry x="240" width="140" height="21" as="geometry">
            <mxRectangle width="140" height="21" as="alternateBounds" />
          </mxGeometry>
        </mxCell>
        <mxCell id="-uSf08AOs2qsv8gaqKc9-25" value="172.0.0.2" style="shape=partialRectangle;html=1;whiteSpace=wrap;connectable=0;strokeColor=inherit;overflow=hidden;fillColor=none;top=0;left=0;bottom=0;right=0;pointerEvents=1;" vertex="1" parent="-uSf08AOs2qsv8gaqKc9-20">
          <mxGeometry x="380" width="126" height="21" as="geometry">
            <mxRectangle width="126" height="21" as="alternateBounds" />
          </mxGeometry>
        </mxCell>
        <mxCell id="-uSf08AOs2qsv8gaqKc9-26" style="shape=partialRectangle;html=1;whiteSpace=wrap;connectable=0;strokeColor=inherit;overflow=hidden;fillColor=none;top=0;left=0;bottom=0;right=0;pointerEvents=1;" vertex="1" parent="-uSf08AOs2qsv8gaqKc9-20">
          <mxGeometry x="506" width="55" height="21" as="geometry">
            <mxRectangle width="55" height="21" as="alternateBounds" />
          </mxGeometry>
        </mxCell>
        <mxCell id="nzgKgmnznjfbCXP7PvQY-35" value="" style="shape=tableRow;horizontal=0;startSize=0;swimlaneHead=0;swimlaneBody=0;strokeColor=inherit;top=0;left=0;bottom=0;right=0;collapsible=0;dropTarget=0;fillColor=none;points=[[0,0.5],[1,0.5]];portConstraint=eastwest;" parent="02UI2pdwLbwrpsEyUzrz-1" vertex="1">
          <mxGeometry y="87" width="560.8331451416029" height="21" as="geometry" />
        </mxCell>
        <mxCell id="nzgKgmnznjfbCXP7PvQY-36" value="30" style="shape=partialRectangle;html=1;whiteSpace=wrap;connectable=0;strokeColor=inherit;overflow=hidden;fillColor=none;top=0;left=0;bottom=0;right=0;pointerEvents=1;" parent="nzgKgmnznjfbCXP7PvQY-35" vertex="1">
          <mxGeometry width="74" height="21" as="geometry">
            <mxRectangle width="74" height="21" as="alternateBounds" />
          </mxGeometry>
        </mxCell>
        <mxCell id="nzgKgmnznjfbCXP7PvQY-37" value="permit" style="shape=partialRectangle;html=1;whiteSpace=wrap;connectable=0;strokeColor=inherit;overflow=hidden;fillColor=none;top=0;left=0;bottom=0;right=0;pointerEvents=1;" parent="nzgKgmnznjfbCXP7PvQY-35" vertex="1">
          <mxGeometry x="74" width="92" height="21" as="geometry">
            <mxRectangle width="92" height="21" as="alternateBounds" />
          </mxGeometry>
        </mxCell>
        <mxCell id="nzgKgmnznjfbCXP7PvQY-38" value="ip" style="shape=partialRectangle;html=1;whiteSpace=wrap;connectable=0;strokeColor=inherit;overflow=hidden;fillColor=none;top=0;left=0;bottom=0;right=0;pointerEvents=1;" parent="nzgKgmnznjfbCXP7PvQY-35" vertex="1">
          <mxGeometry x="166" width="74" height="21" as="geometry">
            <mxRectangle width="74" height="21" as="alternateBounds" />
          </mxGeometry>
        </mxCell>
        <mxCell id="-uSf08AOs2qsv8gaqKc9-3" value="192.168.1.162" style="shape=partialRectangle;html=1;whiteSpace=wrap;connectable=0;strokeColor=inherit;overflow=hidden;fillColor=none;top=0;left=0;bottom=0;right=0;pointerEvents=1;" vertex="1" parent="nzgKgmnznjfbCXP7PvQY-35">
          <mxGeometry x="240" width="140" height="21" as="geometry">
            <mxRectangle width="140" height="21" as="alternateBounds" />
          </mxGeometry>
        </mxCell>
        <mxCell id="-uSf08AOs2qsv8gaqKc9-9" style="shape=partialRectangle;html=1;whiteSpace=wrap;connectable=0;strokeColor=inherit;overflow=hidden;fillColor=none;top=0;left=0;bottom=0;right=0;pointerEvents=1;" vertex="1" parent="nzgKgmnznjfbCXP7PvQY-35">
          <mxGeometry x="380" width="126" height="21" as="geometry">
            <mxRectangle width="126" height="21" as="alternateBounds" />
          </mxGeometry>
        </mxCell>
        <mxCell id="-uSf08AOs2qsv8gaqKc9-16" style="shape=partialRectangle;html=1;whiteSpace=wrap;connectable=0;strokeColor=inherit;overflow=hidden;fillColor=none;top=0;left=0;bottom=0;right=0;pointerEvents=1;" vertex="1" parent="nzgKgmnznjfbCXP7PvQY-35">
          <mxGeometry x="506" width="55" height="21" as="geometry">
            <mxRectangle width="55" height="21" as="alternateBounds" />
          </mxGeometry>
        </mxCell>
        <mxCell id="nzgKgmnznjfbCXP7PvQY-39" value="" style="shape=tableRow;horizontal=0;startSize=0;swimlaneHead=0;swimlaneBody=0;strokeColor=inherit;top=0;left=0;bottom=0;right=0;collapsible=0;dropTarget=0;fillColor=none;points=[[0,0.5],[1,0.5]];portConstraint=eastwest;" parent="02UI2pdwLbwrpsEyUzrz-1" vertex="1">
          <mxGeometry y="108" width="560.8331451416029" height="21" as="geometry" />
        </mxCell>
        <mxCell id="nzgKgmnznjfbCXP7PvQY-40" value="40" style="shape=partialRectangle;html=1;whiteSpace=wrap;connectable=0;strokeColor=inherit;overflow=hidden;fillColor=none;top=0;left=0;bottom=0;right=0;pointerEvents=1;" parent="nzgKgmnznjfbCXP7PvQY-39" vertex="1">
          <mxGeometry width="74" height="21" as="geometry">
            <mxRectangle width="74" height="21" as="alternateBounds" />
          </mxGeometry>
        </mxCell>
        <mxCell id="nzgKgmnznjfbCXP7PvQY-41" value="deny" style="shape=partialRectangle;html=1;whiteSpace=wrap;connectable=0;strokeColor=inherit;overflow=hidden;fillColor=none;top=0;left=0;bottom=0;right=0;pointerEvents=1;" parent="nzgKgmnznjfbCXP7PvQY-39" vertex="1">
          <mxGeometry x="74" width="92" height="21" as="geometry">
            <mxRectangle width="92" height="21" as="alternateBounds" />
          </mxGeometry>
        </mxCell>
        <mxCell id="nzgKgmnznjfbCXP7PvQY-42" value="ip" style="shape=partialRectangle;html=1;whiteSpace=wrap;connectable=0;strokeColor=inherit;overflow=hidden;fillColor=none;top=0;left=0;bottom=0;right=0;pointerEvents=1;" parent="nzgKgmnznjfbCXP7PvQY-39" vertex="1">
          <mxGeometry x="166" width="74" height="21" as="geometry">
            <mxRectangle width="74" height="21" as="alternateBounds" />
          </mxGeometry>
        </mxCell>
        <mxCell id="-uSf08AOs2qsv8gaqKc9-4" value="192.168.1.160 /29" style="shape=partialRectangle;html=1;whiteSpace=wrap;connectable=0;strokeColor=inherit;overflow=hidden;fillColor=none;top=0;left=0;bottom=0;right=0;pointerEvents=1;" vertex="1" parent="nzgKgmnznjfbCXP7PvQY-39">
          <mxGeometry x="240" width="140" height="21" as="geometry">
            <mxRectangle width="140" height="21" as="alternateBounds" />
          </mxGeometry>
        </mxCell>
        <mxCell id="-uSf08AOs2qsv8gaqKc9-10" style="shape=partialRectangle;html=1;whiteSpace=wrap;connectable=0;strokeColor=inherit;overflow=hidden;fillColor=none;top=0;left=0;bottom=0;right=0;pointerEvents=1;" vertex="1" parent="nzgKgmnznjfbCXP7PvQY-39">
          <mxGeometry x="380" width="126" height="21" as="geometry">
            <mxRectangle width="126" height="21" as="alternateBounds" />
          </mxGeometry>
        </mxCell>
        <mxCell id="-uSf08AOs2qsv8gaqKc9-17" style="shape=partialRectangle;html=1;whiteSpace=wrap;connectable=0;strokeColor=inherit;overflow=hidden;fillColor=none;top=0;left=0;bottom=0;right=0;pointerEvents=1;" vertex="1" parent="nzgKgmnznjfbCXP7PvQY-39">
          <mxGeometry x="506" width="55" height="21" as="geometry">
            <mxRectangle width="55" height="21" as="alternateBounds" />
          </mxGeometry>
        </mxCell>
        <mxCell id="02UI2pdwLbwrpsEyUzrz-10" style="shape=tableRow;horizontal=0;startSize=0;swimlaneHead=0;swimlaneBody=0;strokeColor=inherit;top=0;left=0;bottom=0;right=0;collapsible=0;dropTarget=0;fillColor=none;points=[[0,0.5],[1,0.5]];portConstraint=eastwest;" parent="02UI2pdwLbwrpsEyUzrz-1" vertex="1">
          <mxGeometry y="129" width="560.8331451416029" height="19" as="geometry" />
        </mxCell>
        <mxCell id="02UI2pdwLbwrpsEyUzrz-11" value="50" style="shape=partialRectangle;html=1;whiteSpace=wrap;connectable=0;strokeColor=inherit;overflow=hidden;fillColor=none;top=0;left=0;bottom=0;right=0;pointerEvents=1;" parent="02UI2pdwLbwrpsEyUzrz-10" vertex="1">
          <mxGeometry width="74" height="19" as="geometry">
            <mxRectangle width="74" height="19" as="alternateBounds" />
          </mxGeometry>
        </mxCell>
        <mxCell id="02UI2pdwLbwrpsEyUzrz-12" value="permit" style="shape=partialRectangle;html=1;whiteSpace=wrap;connectable=0;strokeColor=inherit;overflow=hidden;fillColor=none;top=0;left=0;bottom=0;right=0;pointerEvents=1;" parent="02UI2pdwLbwrpsEyUzrz-10" vertex="1">
          <mxGeometry x="74" width="92" height="19" as="geometry">
            <mxRectangle width="92" height="19" as="alternateBounds" />
          </mxGeometry>
        </mxCell>
        <mxCell id="02UI2pdwLbwrpsEyUzrz-13" value="" style="shape=partialRectangle;html=1;whiteSpace=wrap;connectable=0;strokeColor=inherit;overflow=hidden;fillColor=none;top=0;left=0;bottom=0;right=0;pointerEvents=1;" parent="02UI2pdwLbwrpsEyUzrz-10" vertex="1">
          <mxGeometry x="166" width="74" height="19" as="geometry">
            <mxRectangle width="74" height="19" as="alternateBounds" />
          </mxGeometry>
        </mxCell>
        <mxCell id="-uSf08AOs2qsv8gaqKc9-5" value="any" style="shape=partialRectangle;html=1;whiteSpace=wrap;connectable=0;strokeColor=inherit;overflow=hidden;fillColor=none;top=0;left=0;bottom=0;right=0;pointerEvents=1;" vertex="1" parent="02UI2pdwLbwrpsEyUzrz-10">
          <mxGeometry x="240" width="140" height="19" as="geometry">
            <mxRectangle width="140" height="19" as="alternateBounds" />
          </mxGeometry>
        </mxCell>
        <mxCell id="-uSf08AOs2qsv8gaqKc9-11" style="shape=partialRectangle;html=1;whiteSpace=wrap;connectable=0;strokeColor=inherit;overflow=hidden;fillColor=none;top=0;left=0;bottom=0;right=0;pointerEvents=1;" vertex="1" parent="02UI2pdwLbwrpsEyUzrz-10">
          <mxGeometry x="380" width="126" height="19" as="geometry">
            <mxRectangle width="126" height="19" as="alternateBounds" />
          </mxGeometry>
        </mxCell>
        <mxCell id="-uSf08AOs2qsv8gaqKc9-18" style="shape=partialRectangle;html=1;whiteSpace=wrap;connectable=0;strokeColor=inherit;overflow=hidden;fillColor=none;top=0;left=0;bottom=0;right=0;pointerEvents=1;" vertex="1" parent="02UI2pdwLbwrpsEyUzrz-10">
          <mxGeometry x="506" width="55" height="19" as="geometry">
            <mxRectangle width="55" height="19" as="alternateBounds" />
          </mxGeometry>
        </mxCell>
        <mxCell id="nzgKgmnznjfbCXP7PvQY-43" style="shape=tableRow;horizontal=0;startSize=0;swimlaneHead=0;swimlaneBody=0;strokeColor=inherit;top=0;left=0;bottom=0;right=0;collapsible=0;dropTarget=0;fillColor=none;points=[[0,0.5],[1,0.5]];portConstraint=eastwest;" parent="02UI2pdwLbwrpsEyUzrz-1" vertex="1">
          <mxGeometry y="148" width="560.8331451416029" height="19" as="geometry" />
        </mxCell>
        <mxCell id="nzgKgmnznjfbCXP7PvQY-44" value="60" style="shape=partialRectangle;html=1;whiteSpace=wrap;connectable=0;strokeColor=inherit;overflow=hidden;fillColor=none;top=0;left=0;bottom=0;right=0;pointerEvents=1;" parent="nzgKgmnznjfbCXP7PvQY-43" vertex="1">
          <mxGeometry width="74" height="19" as="geometry">
            <mxRectangle width="74" height="19" as="alternateBounds" />
          </mxGeometry>
        </mxCell>
        <mxCell id="nzgKgmnznjfbCXP7PvQY-45" value="deny" style="shape=partialRectangle;html=1;whiteSpace=wrap;connectable=0;strokeColor=inherit;overflow=hidden;fillColor=none;top=0;left=0;bottom=0;right=0;pointerEvents=1;" parent="nzgKgmnznjfbCXP7PvQY-43" vertex="1">
          <mxGeometry x="74" width="92" height="19" as="geometry">
            <mxRectangle width="92" height="19" as="alternateBounds" />
          </mxGeometry>
        </mxCell>
        <mxCell id="nzgKgmnznjfbCXP7PvQY-46" value="" style="shape=partialRectangle;html=1;whiteSpace=wrap;connectable=0;strokeColor=inherit;overflow=hidden;fillColor=none;top=0;left=0;bottom=0;right=0;pointerEvents=1;" parent="nzgKgmnznjfbCXP7PvQY-43" vertex="1">
          <mxGeometry x="166" width="74" height="19" as="geometry">
            <mxRectangle width="74" height="19" as="alternateBounds" />
          </mxGeometry>
        </mxCell>
        <mxCell id="-uSf08AOs2qsv8gaqKc9-6" value="any" style="shape=partialRectangle;html=1;whiteSpace=wrap;connectable=0;strokeColor=inherit;overflow=hidden;fillColor=none;top=0;left=0;bottom=0;right=0;pointerEvents=1;" vertex="1" parent="nzgKgmnznjfbCXP7PvQY-43">
          <mxGeometry x="240" width="140" height="19" as="geometry">
            <mxRectangle width="140" height="19" as="alternateBounds" />
          </mxGeometry>
        </mxCell>
        <mxCell id="-uSf08AOs2qsv8gaqKc9-12" style="shape=partialRectangle;html=1;whiteSpace=wrap;connectable=0;strokeColor=inherit;overflow=hidden;fillColor=none;top=0;left=0;bottom=0;right=0;pointerEvents=1;" vertex="1" parent="nzgKgmnznjfbCXP7PvQY-43">
          <mxGeometry x="380" width="126" height="19" as="geometry">
            <mxRectangle width="126" height="19" as="alternateBounds" />
          </mxGeometry>
        </mxCell>
        <mxCell id="-uSf08AOs2qsv8gaqKc9-19" style="shape=partialRectangle;html=1;whiteSpace=wrap;connectable=0;strokeColor=inherit;overflow=hidden;fillColor=none;top=0;left=0;bottom=0;right=0;pointerEvents=1;" vertex="1" parent="nzgKgmnznjfbCXP7PvQY-43">
          <mxGeometry x="506" width="55" height="19" as="geometry">
            <mxRectangle width="55" height="19" as="alternateBounds" />
          </mxGeometry>
        </mxCell>
        <mxCell id="02UI2pdwLbwrpsEyUzrz-30" value="" style="endArrow=none;dashed=1;html=1;rounded=0;exitX=0.88;exitY=0.1;exitDx=0;exitDy=0;exitPerimeter=0;entryX=0;entryY=0.5;entryDx=0;entryDy=0;" parent="1" source="dWH_sTAXQQby6KeDxErJ-14" target="nzgKgmnznjfbCXP7PvQY-35" edge="1">
          <mxGeometry width="50" height="50" relative="1" as="geometry">
            <mxPoint x="734" y="322" as="sourcePoint" />
            <mxPoint x="977" y="282" as="targetPoint" />
          </mxGeometry>
        </mxCell>
        <mxCell id="DoaAoKG-EfBmuwW_KqLy-1" value="FTP-Server&lt;br&gt;192.168.1.245" style="shape=mxgraph.cisco.computers_and_peripherals.ibm_mini_as400;sketch=0;html=1;pointerEvents=1;dashed=0;fillColor=#036897;strokeColor=#ffffff;strokeWidth=2;verticalLabelPosition=bottom;verticalAlign=top;align=center;outlineConnect=0;" parent="1" vertex="1">
          <mxGeometry x="662.5" y="175" width="43" height="62" as="geometry" />
        </mxCell>
        <mxCell id="DoaAoKG-EfBmuwW_KqLy-2" value="192.168.1.244 /30" style="text;html=1;align=center;verticalAlign=middle;resizable=0;points=[];autosize=1;strokeColor=none;fillColor=none;" parent="1" vertex="1">
          <mxGeometry x="582" y="275" width="115" height="26" as="geometry" />
        </mxCell>
        <mxCell id="DoaAoKG-EfBmuwW_KqLy-3" value="" style="endArrow=none;html=1;rounded=0;exitX=0;exitY=1;exitDx=0;exitDy=0;exitPerimeter=0;" parent="1" source="DoaAoKG-EfBmuwW_KqLy-1" target="dWH_sTAXQQby6KeDxErJ-14" edge="1">
          <mxGeometry width="50" height="50" relative="1" as="geometry">
            <mxPoint x="719" y="487" as="sourcePoint" />
            <mxPoint x="613" y="407" as="targetPoint" />
          </mxGeometry>
        </mxCell>
        <mxCell id="DoaAoKG-EfBmuwW_KqLy-4" value=".246" style="text;html=1;align=center;verticalAlign=middle;resizable=0;points=[];autosize=1;strokeColor=none;fillColor=none;" parent="1" vertex="1">
          <mxGeometry x="597" y="323" width="41" height="26" as="geometry" />
        </mxCell>
        <mxCell id="nzgKgmnznjfbCXP7PvQY-17" value="&quot;FTPServer&quot; out Gig 4/0" style="shape=table;startSize=25;container=1;collapsible=0;childLayout=tableLayout;points=[[0,0,0,0,0],[0,0.25,0,0,0],[0,0.5,0,0,0],[0,0.75,0,0,0],[0,1,0,0,0],[0.25,0,0,0,0],[0.25,1,0,0,0],[0.5,0,0,0,0],[0.5,1,0,0,0],[0.75,0,0,0,0],[0.75,1,0,0,0],[1,0,0,0,0],[1,0.25,0,0,0],[1,0.5,0,0,0],[1,0.75,0,0,0],[1,1,0,0,0]];" parent="1" vertex="1">
          <mxGeometry x="836" y="60" width="376" height="104.20833333333343" as="geometry" />
        </mxCell>
        <mxCell id="nzgKgmnznjfbCXP7PvQY-18" value="" style="shape=tableRow;horizontal=0;startSize=0;swimlaneHead=0;swimlaneBody=0;strokeColor=inherit;top=0;left=0;bottom=0;right=0;collapsible=0;dropTarget=0;fillColor=none;points=[[0,0.5],[1,0.5]];portConstraint=eastwest;" parent="nzgKgmnznjfbCXP7PvQY-17" vertex="1">
          <mxGeometry y="25" width="376" height="20" as="geometry" />
        </mxCell>
        <mxCell id="nzgKgmnznjfbCXP7PvQY-19" value="Sequenz" style="shape=partialRectangle;html=1;whiteSpace=wrap;connectable=0;strokeColor=inherit;overflow=hidden;fillColor=none;top=0;left=0;bottom=0;right=0;pointerEvents=1;" parent="nzgKgmnznjfbCXP7PvQY-18" vertex="1">
          <mxGeometry width="85" height="20" as="geometry">
            <mxRectangle width="85" height="20" as="alternateBounds" />
          </mxGeometry>
        </mxCell>
        <mxCell id="nzgKgmnznjfbCXP7PvQY-20" value="permit/deny" style="shape=partialRectangle;html=1;whiteSpace=wrap;connectable=0;strokeColor=inherit;overflow=hidden;fillColor=none;top=0;left=0;bottom=0;right=0;pointerEvents=1;" parent="nzgKgmnznjfbCXP7PvQY-18" vertex="1">
          <mxGeometry x="85" width="92" height="20" as="geometry">
            <mxRectangle width="92" height="20" as="alternateBounds" />
          </mxGeometry>
        </mxCell>
        <mxCell id="nzgKgmnznjfbCXP7PvQY-21" value="Host / Netz" style="shape=partialRectangle;html=1;whiteSpace=wrap;connectable=0;strokeColor=inherit;overflow=hidden;fillColor=none;top=0;left=0;bottom=0;right=0;pointerEvents=1;" parent="nzgKgmnznjfbCXP7PvQY-18" vertex="1">
          <mxGeometry x="177" width="199" height="20" as="geometry">
            <mxRectangle width="199" height="20" as="alternateBounds" />
          </mxGeometry>
        </mxCell>
        <mxCell id="nzgKgmnznjfbCXP7PvQY-22" value="" style="shape=tableRow;horizontal=0;startSize=0;swimlaneHead=0;swimlaneBody=0;strokeColor=inherit;top=0;left=0;bottom=0;right=0;collapsible=0;dropTarget=0;fillColor=none;points=[[0,0.5],[1,0.5]];portConstraint=eastwest;" parent="nzgKgmnznjfbCXP7PvQY-17" vertex="1">
          <mxGeometry y="45" width="376" height="21" as="geometry" />
        </mxCell>
        <mxCell id="nzgKgmnznjfbCXP7PvQY-23" value="10" style="shape=partialRectangle;html=1;whiteSpace=wrap;connectable=0;strokeColor=inherit;overflow=hidden;fillColor=none;top=0;left=0;bottom=0;right=0;pointerEvents=1;" parent="nzgKgmnznjfbCXP7PvQY-22" vertex="1">
          <mxGeometry width="85" height="21" as="geometry">
            <mxRectangle width="85" height="21" as="alternateBounds" />
          </mxGeometry>
        </mxCell>
        <mxCell id="nzgKgmnznjfbCXP7PvQY-24" value="permit" style="shape=partialRectangle;html=1;whiteSpace=wrap;connectable=0;strokeColor=inherit;overflow=hidden;fillColor=none;top=0;left=0;bottom=0;right=0;pointerEvents=1;" parent="nzgKgmnznjfbCXP7PvQY-22" vertex="1">
          <mxGeometry x="85" width="92" height="21" as="geometry">
            <mxRectangle width="92" height="21" as="alternateBounds" />
          </mxGeometry>
        </mxCell>
        <mxCell id="nzgKgmnznjfbCXP7PvQY-25" value="192.168.1.168 /29" style="shape=partialRectangle;html=1;whiteSpace=wrap;connectable=0;strokeColor=inherit;overflow=hidden;fillColor=none;top=0;left=0;bottom=0;right=0;pointerEvents=1;" parent="nzgKgmnznjfbCXP7PvQY-22" vertex="1">
          <mxGeometry x="177" width="199" height="21" as="geometry">
            <mxRectangle width="199" height="21" as="alternateBounds" />
          </mxGeometry>
        </mxCell>
        <mxCell id="nzgKgmnznjfbCXP7PvQY-26" style="shape=tableRow;horizontal=0;startSize=0;swimlaneHead=0;swimlaneBody=0;strokeColor=inherit;top=0;left=0;bottom=0;right=0;collapsible=0;dropTarget=0;fillColor=none;points=[[0,0.5],[1,0.5]];portConstraint=eastwest;" parent="nzgKgmnznjfbCXP7PvQY-17" vertex="1">
          <mxGeometry y="66" width="376" height="19" as="geometry" />
        </mxCell>
        <mxCell id="nzgKgmnznjfbCXP7PvQY-27" value="20" style="shape=partialRectangle;html=1;whiteSpace=wrap;connectable=0;strokeColor=inherit;overflow=hidden;fillColor=none;top=0;left=0;bottom=0;right=0;pointerEvents=1;" parent="nzgKgmnznjfbCXP7PvQY-26" vertex="1">
          <mxGeometry width="85" height="19" as="geometry">
            <mxRectangle width="85" height="19" as="alternateBounds" />
          </mxGeometry>
        </mxCell>
        <mxCell id="nzgKgmnznjfbCXP7PvQY-28" value="permit" style="shape=partialRectangle;html=1;whiteSpace=wrap;connectable=0;strokeColor=inherit;overflow=hidden;fillColor=none;top=0;left=0;bottom=0;right=0;pointerEvents=1;" parent="nzgKgmnznjfbCXP7PvQY-26" vertex="1">
          <mxGeometry x="85" width="92" height="19" as="geometry">
            <mxRectangle width="92" height="19" as="alternateBounds" />
          </mxGeometry>
        </mxCell>
        <mxCell id="nzgKgmnznjfbCXP7PvQY-29" value="192.168.1.162" style="shape=partialRectangle;html=1;whiteSpace=wrap;connectable=0;strokeColor=inherit;overflow=hidden;fillColor=none;top=0;left=0;bottom=0;right=0;pointerEvents=1;" parent="nzgKgmnznjfbCXP7PvQY-26" vertex="1">
          <mxGeometry x="177" width="199" height="19" as="geometry">
            <mxRectangle width="199" height="19" as="alternateBounds" />
          </mxGeometry>
        </mxCell>
        <mxCell id="nzgKgmnznjfbCXP7PvQY-30" style="shape=tableRow;horizontal=0;startSize=0;swimlaneHead=0;swimlaneBody=0;strokeColor=inherit;top=0;left=0;bottom=0;right=0;collapsible=0;dropTarget=0;fillColor=none;points=[[0,0.5],[1,0.5]];portConstraint=eastwest;" parent="nzgKgmnznjfbCXP7PvQY-17" vertex="1">
          <mxGeometry y="85" width="376" height="19" as="geometry" />
        </mxCell>
        <mxCell id="nzgKgmnznjfbCXP7PvQY-31" value="30" style="shape=partialRectangle;html=1;whiteSpace=wrap;connectable=0;strokeColor=inherit;overflow=hidden;fillColor=none;top=0;left=0;bottom=0;right=0;pointerEvents=1;" parent="nzgKgmnznjfbCXP7PvQY-30" vertex="1">
          <mxGeometry width="85" height="19" as="geometry">
            <mxRectangle width="85" height="19" as="alternateBounds" />
          </mxGeometry>
        </mxCell>
        <mxCell id="nzgKgmnznjfbCXP7PvQY-32" value="deny" style="shape=partialRectangle;html=1;whiteSpace=wrap;connectable=0;strokeColor=inherit;overflow=hidden;fillColor=none;top=0;left=0;bottom=0;right=0;pointerEvents=1;" parent="nzgKgmnznjfbCXP7PvQY-30" vertex="1">
          <mxGeometry x="85" width="92" height="19" as="geometry">
            <mxRectangle width="92" height="19" as="alternateBounds" />
          </mxGeometry>
        </mxCell>
        <mxCell id="nzgKgmnznjfbCXP7PvQY-33" value="any" style="shape=partialRectangle;html=1;whiteSpace=wrap;connectable=0;strokeColor=inherit;overflow=hidden;fillColor=none;top=0;left=0;bottom=0;right=0;pointerEvents=1;" parent="nzgKgmnznjfbCXP7PvQY-30" vertex="1">
          <mxGeometry x="177" width="199" height="19" as="geometry">
            <mxRectangle width="199" height="19" as="alternateBounds" />
          </mxGeometry>
        </mxCell>
        <mxCell id="nzgKgmnznjfbCXP7PvQY-34" value="" style="endArrow=none;dashed=1;html=1;rounded=0;exitX=0;exitY=0;exitDx=0;exitDy=0;entryX=0;entryY=1;entryDx=0;entryDy=0;entryPerimeter=0;" parent="1" source="dWH_sTAXQQby6KeDxErJ-52" target="nzgKgmnznjfbCXP7PvQY-30" edge="1">
          <mxGeometry width="50" height="50" relative="1" as="geometry">
            <mxPoint x="604" y="385" as="sourcePoint" />
            <mxPoint x="803" y="275" as="targetPoint" />
          </mxGeometry>
        </mxCell>
      </root>
    </mxGraphModel>
  </diagram>
</mxfile>
